<?xml version="1.0" encoding="utf-8"?>
<!-- Generator: Adobe Illustrator 21.0.0, SVG Export Plug-In . SVG Version: 6.00 Build 0)  -->
<svg version="1.1" id="Layer_1" xmlns="http://www.w3.org/2000/svg" xmlns:xlink="http://www.w3.org/1999/xlink" x="0px" y="0px"
	 viewBox="0 0 2084 786" style="enable-background:new 0 0 2084 786;" xml:space="preserve">
<style type="text/css">
	.st0{fill:#F77D02;}
	.st1{fill:#F77E05;}
	.st2{fill:#F77F06;}
	.st3{fill:#F77F07;}
	.st4{fill:#FEC900;}
	.st5{fill:#F8F06F;}
</style>
<polygon class="st0" points="147.8,355.8 97.5,459.5 59.3,461.2 59.3,739 2012.8,739 2012.8,395 2012.8,323.9 1947.5,323.9 
	1910.3,477.5 1938.5,407.2 1910.3,408.9 1854.1,459.5 1864.1,479.1 1753.3,490.5 1745.6,441.5 1685.3,443.2 1639,448.1 
	1594.8,426.8 1582.8,395 1571.7,393.3 1564.7,355.8 1543.6,304.3 1529.5,291.2 1486.3,309.2 1474.2,386.8 1465.2,395 1488.3,346.8 
	1454.1,325.5 1420.7,346.7 1411.9,395 1395.8,417 1385.8,433.4 1373.7,451.4 1296.4,448.1 1175.1,501.2 921.5,443.2 923.5,355.8 
	850.2,325.5 782.9,312.4 764.8,412.1 795.9,393.3 771.8,422.8 702.5,459.5 710.5,480.8 686.4,501.2 531.7,497.9 459.6,459.9 
	565.8,515.1 634.2,526.5 630.1,474.2 596,441.5 469.4,444.8 439.2,402.3 423.1,386.8 401,363.1 392,344.3 419.1,299.4 364.8,299.4 
	281.4,355.8 268.4,402.3 264.4,443.2 194,448.1 "/>
<path class="st0" d="M949.5,646c-8.9-4.7-16.7-10.6-22.3-17.8c-27.3-35.6-37.8-73.7-25.1-115.2c3-9.9,9.9-18.3,15.1-27.4
	c1.1-2,2.9-4.5,5.9-3.6c2.8,0.8,2.8,3.6,2.2,5.8c-2.5,8.7-1.3,17.6-1.4,26.4c-0.1,8.8,3.7,16.3,9.7,23.3c6.7,7.8,17.2,7.3,23.1-1.1
	c8-11.3,7.5-23.5,4.5-35.7c-3.5-14.4-12.7-27-21.8-39.3c-23.6-32.2-35.6-67.5-41.5-104c-3.7-22.9,0.5-46,6.9-68.5
	c2.4-8.4,7.8-15.9,14.3-22.8c11.6-12.2,23.1-24.5,35-36.5c18.1-18.3,26.8-39.1,26.6-62.5c0-4.2-2.3-11.1,2.7-12
	c5.7-1.1,8,5.7,10.2,9.7c17.6,31.9,19,63.8-1.6,95.4c-8.5,13-17.1,25.9-19.9,40.7c-3.3,17.3,0.3,33.1,14.6,46.8
	c12.8,12.3,22.4,26,27.6,41.7c0.7,2.1,0.5,5.8,4.3,5.4c3.3-0.3,3.4-3.7,3.9-6c2.1-9.7-0.2-19-3.1-28.3c-4.1-12.9-7.2-26.2-9-39.7
	c-1.5-11.2,1.9-20.9,10.6-29.4c5-4.9,10.4-9.5,15.8-14.2s10-9.7,11-16.5c0.4-2.7,1.5-6,5.8-5.3c3.8,0.6,2.6,3.9,2.6,6.3
	c0,10.8-0.1,21.5-3.4,32.1c-1.8,5.8-1.1,11.7,0,17.5c1.3,7.1,6.2,10.1,15.1,9.7c13.4-0.7,24.9-10,26.7-21.5c1-6.2-0.4-12.2-2.8-18.1
	c-4.9-12.1-10-24.1-15.2-36.1c-12.8-29.9-15.1-59.5,0.7-89.5c7.3-13.9,14.4-28,23-41.4c13.4-20.9,21-43.2,21.4-66.9
	c0.1-4.4,0-8.8-1.4-13.1c-0.9-2.8-0.4-6,3.1-6.9s4.3,2.6,5.8,4.5c20.5,28.1,24.2,58.1,17.1,90c-5.3,23.7-4.9,47.8,5.2,71
	c1.9,4.5,5.4,8.1,9.8,10.3c6.1,3.2,10.9,2.1,14.1-3.1c2.4-3.9,2.9-8.6,1.3-12.9c-2.1-6.1-4.1-12.3-7.1-18.2
	c-10-20.1-3.8-40,0.8-59.9c1.6-7,7.9-12.6,13.6-18c1.3-1.3,2.9-3,5.2-2s1.6,2.9,0.7,4.6c-11.1,20.4-4.7,39.2,8.4,57.2
	c6.4,8.9,13.3,17.5,19.7,26.4c13.3,18.5,19.2,38.4,15.5,59.9c-1.9,11.3-7.9,21.6-16.8,28.8c-10.7,8.9-17.8,19.7-23.9,30.9
	c-3.2,5.8-3.8,11.8-1.6,17.9c2,5.4,6,9,13.3,9.5s12.1-2.6,14.6-7.9c2.6-5.7,4.4-11.7,7-17.4c4.7-10.3,12.7-17.4,26.9-19.4
	c12-1.7,18.2-8.9,21.8-17.8c2.9-7,3.6-14.4,4.6-21.7c0.2-1.6,0.5-3.7,3.2-3.9c1.6-0.2,3,0.9,3.2,2.5c0,0.1,0,0.3,0,0.4
	c1.1,18,4.4,36.2-4.4,53.7c-2.8,5.8-6.5,11.2-10.9,16c-11.4,12-12.4,25-5.4,38.8c9.5,18.8,20.3,37.1,30.9,55.5
	c23.2,40.3,38,82.4,38.3,127.3c0.2,22.2-4.5,43.9-11.7,65.2c-2.3,6.9-5.6,13.6-10.9,19.3c-17.3,18.4-36.6,35.1-62,46.2
	c0.2-3.6,2.8-6.4,4.7-9.4c11.2-16.9,20.3-35.1,27.2-54.2c9.9-27.9,11.5-56.1,7.8-84.8c-2.3-18.3-14.4-33-27.6-47
	c-18.2-19.4-31.5-39.8-28.5-65.1c0.2-1.8,1.3-4.5-1.5-5.2c-3.1-0.8-4.4,1.9-5.8,3.7c-12.8,17.7-14.4,37-11.8,56.8
	c1.7,12.4,10.2,22.9,15.5,34.2c10.3,21.9,11.1,42.6-9.4,61.6c-8.3,7.7-13.9,17.1-17.8,27c-1.1,2.7-0.8,8.1-5.2,7.3
	c-4.1-0.7-4-5.9-3.7-9.6c0.1-0.7,0.3-1.4,0.5-2.2c3.9-14.8,8.3-29.4,11.4-44.3c2.3-11,1.4-21.7-7.6-31.4c-7-7.6-17.4-13.9-17.5-24.9
	c0-1.2-1.3-2.3-3-2.4c-1.7-0.2-3.3,1-3.6,2.7c-0.3,1.7-0.1,3.4-0.3,5.1c-1.3,11,2.5,21.9,1.9,32.9c-0.5,10.7-8.2,14.4-20,9.5
	c-8.5-3.5-14.2-14.6-11.9-22.6c2.9-9.8,7.4-19.1,12.1-28.3c7.2-14.1,12.4-28.5,14.2-43.6c2-16.7-4.6-32.1-12-46.9
	c-12.5-25.1-25.6-49.7-19.4-77.7c0.3-1.3-0.5-2.6-1.8-2.9c-0.1,0-0.1,0-0.2,0c-2.6-0.6-3.7,0.9-4.7,2.5c-3.8,6.1-8.1,12.1-11.2,18.4
	c-5.5,11.2-8.5,23.1-6.5,35.1c3.2,18.6,1.9,37-2.7,55.3c-1.4,5.5-3.9,10.9-9.7,14.6c-2.5,1.6-5.4,3.6-9,2.1
	c-3.3-1.4-4.2-3.8-4.4-6.7c-0.2-4.8,1.2-9.5,3.9-13.4c10.4-15.9,10.5-32.7,7.2-49.9c-1.1-5.6-5-9.9-8.5-14.4c-0.9-1.1-2-2.8-4.2-2
	s-1.4,2.4-0.7,3.8c4.9,9.7,2.4,19.3-1.9,28.5c-6.3,13.4-18.9,23.8-27.8,35.9c-7.9,10.7-11.7,22.3-13.2,34.7
	c-1.8,14.7,6.7,26.1,15.9,37.9c7.8,10,15.1,20.9,9.6,33.7c-1.9,4.3-5.3,6.9-11.4,6.8c-6.5-0.1-8.7-3.8-10.1-7.9
	c-1.2-3.7-2.2-7.6-3-11.4c-2.1-9.9-8.4-16.3-20.8-18.9c-7.2-1.5-11-6.1-12.7-12.1c-1.8-6.3-1.7-12.6-1.9-19c0-1.5-0.5-3.2-2.7-3.2
	c-1.7,0-2.2,1.4-2.5,2.7c-3.8,18.9-7.8,37.7,5.4,55.6c8,10.8,6.7,21.8,0.1,32.9C988.9,576,963.1,608.7,949.5,646z M1211.7,382.2
	c0.8-12.2-5.6-22.4-12.3-32.6c-0.9-1.4-1.7-3.7-4.4-2.8c-2.4,0.8-1.7,3.1-1.1,4.6c3.6,9,0.3,17-5.2,24.5
	c-11.9,16.1-9.1,31.7,1.6,47.1c1.1,1.6,1.6,4.4,4.8,3.5c3.5-0.9,1.5-3.2,0.8-4.9c-3.4-8-0.8-14.6,6.7-20.5
	C1209.1,396.1,1212.6,389.8,1211.7,382.2L1211.7,382.2z M1112.2,259.6c-1.3,6.8,2.3,13.3,5.1,20c0.6,1.4,1,3.1,3.2,3
	s2.4-1.8,2.6-3.3c0.5-4.8,2.5-9.4,5.7-13c11-12.1,6.9-24-0.2-35.9c-2.8-4.8-6-3.8-7.8,0.4C1117.1,240,1111.3,248.8,1112.2,259.6
	L1112.2,259.6z"/>
<path class="st0" d="M629.9,660.7c-8.9-3.7-16.7-8.3-22.3-14.1c-27.3-28-37.8-58-25.1-90.7c3-7.8,9.9-14.4,15.1-21.6
	c1.1-1.5,2.9-3.5,5.9-2.8c2.8,0.7,2.8,2.8,2.2,4.6c-2.5,6.9-1.3,13.8-1.4,20.8s3.7,12.8,9.7,18.3c6.7,6.2,17.2,5.7,23.1-0.9
	c8-8.9,7.5-18.5,4.5-28.1c-3.5-11.3-12.7-21.2-21.8-31c-23.6-25.3-35.6-53.1-41.5-81.9c-3.7-18,0.5-36.2,6.9-53.9
	c2.4-6.6,7.8-12.5,14.3-17.9c11.6-9.6,23.1-19.3,35-28.8c18.1-14.4,26.8-30.8,26.6-49.2c0-3.3-2.3-8.7,2.7-9.5
	c5.7-0.9,8,4.5,10.2,7.6c17.6,25.1,19,50.3-1.6,75.1c-8.5,10.2-17.1,20.4-19.9,32.1c-3.3,13.6,0.3,26.1,14.6,36.9
	c12.8,9.7,22.4,20.5,27.6,32.8c0.7,1.7,0.5,4.5,4.3,4.3c3.3-0.2,3.4-2.9,3.9-4.7c2.1-7.6-0.2-15-3.1-22.3c-4.1-10.1-7.1-20.5-9-31.2
	c-1.5-8.8,1.9-16.4,10.6-23.1c5-3.9,10.4-7.5,15.8-11.1s10-7.7,11-13c0.4-2.1,1.5-4.7,5.8-4.2c3.8,0.5,2.6,3.1,2.6,4.9
	c0,8.5-0.1,17-3.4,25.3c-1.8,4.6-1.1,9.2,0,13.8c1.3,5.6,6.2,8,15.1,7.6c13.4-0.5,24.9-7.9,26.7-16.9c1-4.9-0.4-9.6-2.8-14.2
	c-4.9-9.5-10-19-15.2-28.4c-12.8-23.5-15.1-46.9,0.7-70.5c7.3-11,14.4-22,23-32.6c13.4-16.5,21-34,21.4-52.7c0.1-3.5,0-6.9-1.4-10.3
	c-0.9-2.2-0.4-4.7,3.1-5.4s4.3,2,5.8,3.6c20.5,22.2,24.2,45.9,17.1,70.9c-5.3,18.7-4.9,37.6,5.2,55.9c1.9,3.4,5,6.1,9.8,8.1
	c6.1,2.5,10.9,1.6,14.1-2.5c2.4-2.8,2.9-6.8,1.3-10.2c-2-4.9-4.3-9.7-7-14.3c-10-15.8-3.8-31.5,0.8-47.2c1.6-5.5,7.9-9.9,13.6-14.2
	c1.3-1,2.9-2.4,5.2-1.5s1.6,2.3,0.7,3.6c-11.1,16.1-4.7,30.9,8.4,45.1c6.4,7,13.3,13.8,19.7,20.8c13.3,14.6,19.2,30.2,15.5,47.1
	c-1.9,8.6-7.2,16.3-16.8,22.6c-10.7,7-17.8,15.5-23.9,24.4c-3.2,4.6-3.8,9.3-1.6,14.1c2,4.2,6,7.1,13.3,7.5s12.1-2.1,14.6-6.2
	c2.6-4.5,4.4-9.2,7-13.7c4.7-8.1,12.7-13.7,26.9-15.3c12-1.3,18.2-7,21.8-14c2.9-5.5,3.6-11.3,4.6-17.1c0.2-1.3,0.5-2.9,3.2-3.1
	c2.2-0.1,3.1,1.1,3.2,2.3c1.1,14.2,4.4,28.5-4.4,42.3c-2.9,4.8-6.6,9-10.9,12.6c-11.4,9.5-12.5,19.7-5.5,30.5
	c9.5,14.8,20.3,29.2,30.9,43.7c23.2,31.7,38,64.9,38.3,100.3c0.2,17.5-4.5,34.5-11.7,51.3c-2.3,5.9-6.1,11.1-10.9,15.2
	c-17.3,14.5-36.5,27.6-62,36.4c0.2-2.8,2.8-5.1,4.7-7.4c11.3-13.6,20.5-27.8,27.2-42.7c9.9-22,11.5-44.2,7.8-66.8
	c-2.3-14.4-14.5-26-27.6-37c-18.2-15.2-31.5-31.3-28.5-51.3c0.2-1.4,1.3-3.6-1.5-4.1c-3.1-0.6-4.4,1.5-5.8,2.9
	c-12.8,14-14.4,29.1-11.8,44.7c1.7,9.7,10.2,18,15.5,26.9c10.3,17.2,11,33.5-9.4,48.5c-7.6,5.5-13.7,12.8-17.9,21.3
	c-1.1,2.2-0.8,6.4-5.2,5.8c-4.1-0.6-4-4.6-3.7-7.5c0.1-0.6,0.3-1.1,0.5-1.7c3.9-11.6,8.3-23.2,11.4-34.9c2.3-8.7,1.4-17.1-7.6-24.7
	c-7-6-17.4-10.9-17.5-19.6c0-0.9-1.3-1.8-3-1.9c-2.2-0.1-3.3,0.9-3.6,2.1c-0.2,1.3-0.3,2.7-0.3,4c-1.3,8.7,2.5,17.2,1.9,25.9
	c-0.5,8.4-8.2,11.3-20,7.5c-8.5-2.8-14.2-11.5-11.9-17.8c2.9-7.7,7.4-15,12.1-22.3c7.2-11.1,12.4-22.4,14.2-34.4
	c2-13.1-4.6-25.3-12-37c-12.5-19.7-25.5-39.1-19.4-61.2c0.3-1.1-0.5-2-2-2.3c-2.6-0.5-3.7,0.7-4.7,2c-3.8,4.8-8.1,9.5-11.2,14.5
	c-5.5,8.9-8.5,18.2-6.5,27.7c3.2,14.7,1.9,29.1-2.7,43.5c-1.4,5.1-5,9.2-9.7,11.5c-2.5,1.2-5.4,2.8-9,1.6c-3.3-1.1-4.2-3-4.4-5.3
	c-0.3-3.8,1.2-7.3,3.9-10.6c10.4-12.5,10.5-25.8,7.2-39.3c-1.1-4.4-5-7.8-8.5-11.3c-0.9-0.9-2-2.2-4.2-1.5s-1.4,1.9-0.7,3
	c4.9,7.7,2.4,15.2-1.9,22.4c-6.3,10.6-18.9,18.7-27.8,28.3c-7.1,7.5-11.7,17-13.2,27.3c-1.8,11.6,6.7,20.6,15.9,29.9
	c7.8,7.9,15.1,16.4,9.6,26.5c-1.9,3.4-5.3,5.5-11.4,5.4c-6.5-0.1-8.7-3-10.1-6.2c-1.2-2.9-2.2-5.9-3-9c-2.1-7.8-8.4-12.8-20.8-14.9
	c-7.2-1.2-11-4.8-12.7-9.5c-1.8-5-1.7-9.9-1.9-14.9c0-1.2-0.5-2.5-2.7-2.5c-1.3-0.1-2.3,0.9-2.5,2.1c-3.8,14.9-7.8,29.7,5.4,43.7
	c8,8.5,6.7,17.2,0.1,25.9C669.4,605.5,643.6,631.3,629.9,660.7z M892.1,453c0.8-9.6-5.6-17.7-12.3-25.7c-0.9-1.1-1.7-2.9-4.4-2.2
	c-2.4,0.6-1.7,2.5-1.1,3.6c3.6,7,0.3,13.4-5.2,19.2c-11.9,12.7-9.1,24.9,1.6,37.1c1.1,1.2,1.6,3.4,4.8,2.8c3.5-0.7,1.5-2.5,0.8-3.9
	c-3.4-6.3-0.8-11.5,6.7-16.1C889.5,463.9,893.1,458.9,892.1,453z M792.6,356.4c-1.3,5.3,2.3,10.5,5.1,15.8c0.6,1.1,1,2.5,3.2,2.4
	s2.5-1.4,2.6-2.6c0.6-4,2.6-7.7,5.7-10.2c11-9.5,6.9-18.9-0.2-28.3c-2.8-3.8-6-3-7.8,0.3C797.5,341,791.8,347.9,792.6,356.4
	L792.6,356.4z"/>
<path class="st0" d="M497.9,550.4c-6.5-8.7-7.9-17.4,0.1-25.9c13.2-14,9.3-28.9,5.4-43.8c-0.1-1.2-1.2-2.2-2.5-2.1
	c-2.2,0-2.7,1.3-2.7,2.5c-0.2,5,0,10-1.9,14.9c-1.7,4.7-5.6,8.4-12.7,9.5c-12.4,2.1-18.7,7.1-20.8,14.9c-0.8,3.1-1.8,6.1-3,9
	c-1.4,3.2-3.6,6.2-10.1,6.2c-6.1,0.1-9.5-2-11.4-5.4c-5.6-10.1,1.8-18.7,9.6-26.5c9.2-9.3,17.7-18.3,15.9-29.9
	c-1.5-10.2-6.1-19.8-13.2-27.3c-8.9-9.6-21.5-17.7-27.8-28.3c-4.4-7.3-6.8-14.8-1.9-22.4c0.7-1.1,1.4-2.3-0.7-3s-3.3,0.6-4.2,1.5
	c-3.5,3.6-7.4,6.9-8.5,11.3c-3.3,13.6-3.2,26.8,7.2,39.3c2.7,3.2,4.2,6.8,3.9,10.6c-0.2,2.3-1.1,4.2-4.4,5.3c-3.6,1.2-6.4-0.4-9-1.6
	c-4.7-2.2-8.3-6.4-9.7-11.5c-4.6-14.4-5.9-28.9-2.7-43.5c2.1-9.5-1-18.8-6.5-27.7c-3.1-5-7.4-9.7-11.2-14.5c-1-1.2-2.1-2.5-4.7-2
	c-1.5,0.3-2.3,1.2-2,2.3c6.2,22-6.9,41.4-19.4,61.2c-7.4,11.6-14,23.8-12,37c1.8,12,7,23.3,14.2,34.4c4.7,7.2,9.3,14.6,12.1,22.3
	c2.4,6.3-3.4,15-11.9,17.8c-11.8,3.9-19.4,1-20-7.5c-0.6-8.7,3.2-17.2,1.9-25.9c0-1.3-0.1-2.7-0.3-4c-0.3-1.2-1.4-2.2-3.6-2.1
	c-1.7,0.1-3,0.9-3,1.9c-0.1,8.6-10.5,13.6-17.5,19.6c-8.9,7.6-9.9,16.1-7.6,24.7c3.1,11.7,7.5,23.3,11.4,34.9
	c0.2,0.5,0.4,1.1,0.5,1.7c0.3,2.9,0.4,7-3.7,7.5c-4.4,0.6-4.1-3.6-5.1-5.8c-4.2-8.4-10.3-15.7-17.8-21.2
	c-20.5-15-19.8-31.3-9.4-48.5c5.4-8.9,13.8-17.2,15.5-26.9c2.7-15.6,1-30.8-11.8-44.7c-1.3-1.5-2.7-3.5-5.8-2.9
	c-2.9,0.5-1.7,2.7-1.5,4.1c3,20-10.3,36-28.5,51.3c-13.1,11-25.2,22.5-27.6,37c-3.6,22.6-2.1,44.8,7.9,66.8
	c6.7,14.9,15.9,29,27.2,42.7c1.9,2.3,4.5,4.6,4.7,7.4c-25.5-8.8-44.8-21.9-62-36.4c-4.8-4.1-8.5-9.3-10.9-15.2
	c-7.2-16.8-11.8-33.9-11.7-51.3c0.4-35.4,15.1-68.5,38.3-100.3c10.6-14.5,21.4-28.9,30.9-43.7c7-10.9,6-21.1-5.4-30.5
	c-4.3-3.6-7.9-7.9-10.9-12.6c-8.8-13.8-5.5-28.1-4.4-42.3c0.1-1.2,1-2.4,3.2-2.3c2.7,0.2,3,1.8,3.2,3.1c0.9,5.8,1.7,11.5,4.6,17.1
	c3.6,7,9.8,12.7,21.8,14c14.2,1.5,22.2,7.1,26.9,15.3c2.6,4.5,4.3,9.2,7,13.7c2.4,4.2,7.2,6.6,14.6,6.2s11.3-3.3,13.3-7.5
	c2.3-4.8,1.6-9.5-1.6-14.1c-6.1-8.9-13.2-17.3-23.9-24.4c-9.6-6.3-14.9-14-16.8-22.6c-3.7-16.9,2.2-32.5,15.5-47.1
	c6.4-7,13.3-13.8,19.7-20.8c13.1-14.2,19.5-29,8.4-45.1c-0.9-1.3-1.5-2.8,0.7-3.6s3.8,0.5,5.2,1.5c5.7,4.3,12,8.6,13.6,14.2
	c4.6,15.6,10.8,31.3,0.8,47.2c-2.7,4.6-5.1,9.4-7,14.3c-1.6,3.4-1.1,7.4,1.2,10.2c3.2,4.1,8,5,14.1,2.5c4.7-1.9,7.9-4.7,9.8-8.1
	c10.1-18.3,10.5-37.2,5.2-55.9c-7.1-25.1-3.4-48.7,17.1-70.9c1.5-1.6,2.1-4.3,5.8-3.6s4,3.2,3.1,5.4c-1.4,3.4-1.5,6.9-1.4,10.3
	c0.4,18.7,8,36.2,21.4,52.7c8.6,10.6,15.7,21.6,23,32.6c15.8,23.6,13.5,46.9,0.7,70.5c-5.1,9.5-10.3,18.9-15.2,28.4
	c-2.4,4.6-3.8,9.3-2.8,14.2c1.8,9,13.4,16.4,26.7,16.9c8.8,0.3,13.7-2,15.1-7.6c1.1-4.6,1.8-9.2,0-13.8c-3.3-8.3-3.4-16.8-3.4-25.3
	c0-1.8-1.2-4.4,2.6-4.9c4.3-0.5,5.4,2,5.8,4.2c1,5.3,5.5,9.2,11,13s10.8,7.3,15.8,11.1c8.7,6.7,12.1,14.3,10.6,23.1
	c-1.9,10.7-4.8,21.2-8.9,31.2c-3,7.3-5.2,14.7-3.1,22.3c0.5,1.9,0.6,4.5,3.9,4.7c3.9,0.3,3.6-2.6,4.4-4.3
	c5.2-12.3,14.8-23.1,27.6-32.8c14.3-10.8,17.8-23.2,14.6-36.9c-2.8-11.7-11.5-21.8-19.9-32.1c-20.6-24.8-19.2-50-1.6-75.1
	c2.2-3.1,4.4-8.5,10.2-7.6c5,0.7,2.7,6.2,2.7,9.4c-0.1,18.5,8.5,34.8,26.6,49.2c11.9,9.5,23.4,19.1,35,28.8
	c6.5,5.4,11.9,11.3,14.3,17.9c6.3,17.7,10.6,35.9,6.9,53.9c-5.9,28.8-17.9,56.6-41.5,81.9c-9.1,9.7-18.3,19.6-21.8,31
	c-3,9.6-3.5,19.2,4.5,28.1c5.9,6.6,16.4,7,23.1,0.9c6-5.5,9.7-11.5,9.7-18.3s1.1-13.9-1.4-20.8c-0.6-1.8-0.6-3.9,2.2-4.6
	c3-0.7,4.8,1.3,5.9,2.8c5.2,7.1,12,13.8,15.1,21.6c12.7,32.7,2.2,62.7-25.1,90.7c-5.6,5.7-13.3,10.3-22.3,14.1
	C544.2,603.5,518.3,577.8,497.9,550.4z M304.7,440.2c7.5,4.6,10.1,9.8,6.7,16.1c-0.7,1.4-2.7,3.1,0.8,3.9c3.2,0.6,3.7-1.6,4.8-2.8
	c10.7-12.2,13.5-24.4,1.6-37.1c-5.5-5.9-8.8-12.2-5.2-19.2c0.6-1.1,1.3-2.9-1.1-3.6c-2.7-0.7-3.4,1-4.4,2.2
	c-6.6,8-13.1,16.1-12.3,25.7C294.6,431.1,298.2,436.1,304.7,440.2z M386.3,306c-1.7-3.2-5-4-7.8-0.3c-7,9.4-11.2,18.8-0.2,28.3
	c3.1,2.6,5.2,6.2,5.7,10.2c0.1,1.2,0.2,2.5,2.6,2.6s2.6-1.3,3.2-2.4c2.9-5.3,6.4-10.5,5.1-15.8C396,320.1,390.2,313.2,386.3,306z"/>
<path class="st0" d="M357,572.8c-1.1-1.5-2.9-3.5-5.9-2.8c-2.8,0.7-2.8,2.8-2.2,4.6c2.5,6.9,1.3,13.8,1.4,20.8s-3.7,12.8-9.7,18.3
	c-6.7,6.2-17.2,5.7-23.1-0.9c-8-8.9-7.5-18.5-4.5-28.1c3.5-11.3,12.7-21.2,21.8-31c23.6-25.3,35.6-53.1,41.5-81.9
	c3.7-18-0.5-36.2-6.9-53.9c-2.4-6.6-7.8-12.5-14.3-17.9c-11.6-9.6-23.1-19.3-35-28.8c-18.1-14.4-26.8-30.8-26.6-49.2
	c0-3.3,2.3-8.7-2.6-9.5c-5.7-0.9-8,4.5-10.2,7.6c-17.6,25.1-19,50.3,1.6,75.1c8.5,10.2,17.1,20.4,19.9,32.1
	c3.3,13.6-0.3,26.1-14.6,36.9c-12.8,9.7-22.4,20.5-27.6,32.8c-0.7,1.7-0.5,4.5-4.4,4.3c-3.3-0.2-3.4-2.9-3.9-4.7
	c-2.1-7.6,0.2-15,3.1-22.3c4.1-10.1,7.1-20.5,9-31.2c1.5-8.8-1.9-16.4-10.6-23.1c-5-3.9-10.4-7.5-15.8-11.1s-10-7.7-11-13
	c-0.4-2.1-1.5-4.7-5.8-4.2c-3.8,0.5-2.6,3.1-2.6,4.9c0,8.5,0.1,17,3.4,25.3c1.8,4.6,1.1,9.2,0,13.8c-1.3,5.6-6.2,8-15.1,7.6
	c-13.4-0.5-24.9-7.9-26.7-16.9c-1-4.9,0.4-9.6,2.8-14.2c4.9-9.5,10-19,15.2-28.4c12.8-23.5,15.1-46.9-0.7-70.5
	c-7.4-11-14.4-22-23-32.6c-13.4-16.5-21-34-21.4-52.7c-0.1-3.5,0-6.9,1.4-10.3c0.9-2.2,0.4-4.7-3.1-5.4s-4.3,2-5.8,3.6
	c-20.5,22.2-24.2,45.7-17.1,70.9c5.3,18.7,4.9,37.6-5.2,56c-1.9,3.4-5,6.1-9.8,8.1c-6.1,2.5-10.9,1.6-14.1-2.5
	c-2.4-2.8-2.9-6.8-1.3-10.2c2-4.9,4.3-9.7,7.1-14.3c10-15.8,3.8-31.5-0.8-47.2c-1.6-5.5-7.9-9.9-13.6-14.2c-1.3-1-2.9-2.4-5.2-1.5
	s-1.6,2.3-0.7,3.6c11.1,16.1,4.7,30.9-8.4,45.1c-6.4,7-13.3,13.8-19.7,20.8c-13.3,14.7-19.2,30.3-15.5,47.2
	c1.9,8.6,7.2,16.3,16.8,22.6c10.7,7,17.8,15.5,23.9,24.4c3.2,4.6,3.8,9.3,1.6,14.1c-2,4.2-6,7.1-13.3,7.5s-12.1-2.1-14.6-6.2
	c-2.6-4.5-4.4-9.2-7-13.7c-2.8-4.9-6.9-8.8-12-11.2c4.1,5.1,6.5,11.4,6.2,17.4c-1.6,29.3-2,58.7-2,88.1c1.1-4.6,1.3-9.4,0.6-14.1
	c-0.2-1.4-1.3-3.6,1.5-4.1c3.1-0.6,4.4,1.5,5.8,2.9c12.8,13.9,14.4,29.2,11.8,44.7c-1.7,9.7-10.2,18-15.5,26.9
	C34,593.7,33.3,610,53.8,625c7.5,5.6,13.7,12.8,17.8,21.2c1.1,2.2,0.8,6.4,5.2,5.8c4.1-0.6,4-4.6,3.7-7.5c-0.1-0.6-0.3-1.1-0.5-1.7
	c-3.9-11.6-8.3-23.2-11.4-34.8c-2.3-8.7-1.4-17.1,7.6-24.7c7-6,17.4-10.9,17.5-19.6c0-0.9,1.3-1.8,3-1.9c2.2-0.1,3.3,0.9,3.6,2.1
	c0.2,1.3,0.3,2.7,0.3,4c1.3,8.7-2.5,17.2-1.9,25.9c0.5,8.4,8.2,11.3,20,7.5c8.5-2.8,14.2-11.5,11.9-17.8c-2.9-7.7-7.4-15-12.1-22.3
	c-7.3-11.1-12.4-22.4-14.3-34.4c-2-13.1,4.6-25.3,12-37c12.5-19.7,25.6-39.1,19.4-61.2c-0.3-1.1,0.5-2,2-2.3c2.6-0.5,3.7,0.7,4.7,2
	c3.8,4.8,8.1,9.5,11.2,14.5c5.5,8.9,8.5,18.2,6.5,27.7c-3.2,14.7-1.9,29.1,2.7,43.5c1.4,5.1,5,9.2,9.7,11.5c2.5,1.2,5.4,2.8,9,1.7
	c3.3-1.1,4.2-3,4.4-5.3c0.3-3.8-1.2-7.3-3.9-10.6c-10.4-12.5-10.5-25.8-7.2-39.3c1.1-4.4,5-7.8,8.5-11.3c0.9-0.9,2-2.2,4.2-1.5
	s1.4,1.9,0.7,3c-4.9,7.7-2.4,15.2,1.9,22.4c6.3,10.6,18.9,18.7,27.8,28.3c7.1,7.5,11.7,17,13.2,27.3c1.8,11.6-6.7,20.6-15.9,29.9
	c-7.8,7.9-15.1,16.4-9.6,26.5c1.9,3.4,5.3,5.5,11.4,5.4c6.5-0.1,8.7-3,10.1-6.2c1.2-2.9,2.2-5.9,3-9c2.1-7.8,8.4-12.8,20.8-14.9
	c7.2-1.2,11-4.8,12.7-9.5c1.8-5,1.7-9.9,1.9-14.9c0-1.2,0.5-2.5,2.7-2.5c1.3-0.1,2.3,0.9,2.5,2.1c3.8,14.9,7.8,29.7-5.4,43.8
	c-8,8.5-6.6,17.2-0.1,25.9c20.5,27.4,46.3,53.1,60,82.5c8.9-3.7,16.7-8.3,22.3-14.1c27.3-28,37.8-58,25.1-90.7
	C369,586.5,362.2,579.9,357,572.8z M83.8,523.5c-1.1,1.2-1.6,3.4-4.8,2.8c-3.5-0.7-1.5-2.5-0.8-3.9c3.4-6.3,0.8-11.5-6.7-16.1
	c-6.5-4-10.1-9-9.1-14.9c-0.8-9.6,5.6-17.7,12.3-25.7c0.9-1.1,1.7-2.9,4.4-2.2c2.4,0.6,1.7,2.5,1.1,3.6c-3.6,7-0.3,13.4,5.2,19.2
	C97.3,499.1,94.6,511.4,83.8,523.5z M156.8,410.6c-0.6,1.1-1,2.5-3.2,2.4s-2.4-1.4-2.6-2.6c-0.6-4-2.6-7.7-5.7-10.2
	c-11-9.5-6.9-18.9,0.2-28.3c2.8-3.8,6-3,7.8,0.3c3.9,7.2,9.7,14.2,8.8,22.7C163.2,400.1,159.7,405.3,156.8,410.6L156.8,410.6z"/>
<path class="st0" d="M2083.9,666.6c-1.2,1.2-1.9,2.8-2.1,4.4c0.8-0.3,1.5-0.5,2.2-0.8C2084,669,2083.9,667.8,2083.9,666.6z"/>
<path class="st0" d="M2017,476.3c-5-8.3-5.7-16.7,0-25.2V247.5c-1.1-4.3-1.1-8.7,0-13v-13.1c-0.4,0.3-0.7,0.5-1.1,0.8
	c-5.7,4.3-12,8.6-13.6,14.2c-4.6,15.6-10.8,31.3-0.8,47.2c2.7,4.6,5.1,9.4,7.1,14.3c1.6,3.3,1.1,7.3-1.3,10.2c-3.2,4.1-8,5-14.1,2.5
	c-4.7-1.9-7.9-4.7-9.8-8.1c-10.1-18.3-10.5-37.2-5.2-55.9c7.1-25.1,3.4-48.7-17.1-70.9c-1.4-1.6-2.1-4.3-5.8-3.6s-4,3.2-3.1,5.4
	c1.4,3.4,1.4,6.9,1.4,10.3c-0.4,18.7-8,36.2-21.4,52.7c-8.6,10.6-15.7,21.7-23,32.6c-15.8,23.6-13.5,46.9-0.7,70.5
	c5.2,9.5,10.3,18.9,15.2,28.4c2.4,4.6,3.8,9.3,2.8,14.2c-1.8,9-13.3,16.4-26.7,16.9c-8.8,0.3-13.7-2-15.1-7.6
	c-1.1-4.6-1.8-9.2,0-13.8c3.3-8.3,3.4-16.8,3.4-25.3c0-1.8,1.2-4.4-2.6-4.9c-4.3-0.5-5.4,2-5.8,4.2c-1,5.3-5.5,9.2-11,13
	s-10.8,7.3-15.8,11.1c-8.7,6.7-12.1,14.3-10.6,23.1c1.9,10.7,4.9,21.2,9,31.2c3,7.3,5.2,14.7,3.1,22.3c-0.5,1.9-0.6,4.5-3.9,4.7
	c-3.9,0.3-3.6-2.6-4.3-4.3c-5.2-12.3-14.8-23.1-27.6-32.8c-14.3-10.8-17.8-23.2-14.6-36.9c2.8-11.7,11.4-21.8,19.9-32.1
	c20.6-24.8,19.2-50,1.6-75.1c-2.2-3.1-4.4-8.5-10.2-7.6c-5,0.7-2.7,6.2-2.7,9.5c0.1,18.5-8.5,34.8-26.6,49.2
	c-11.9,9.5-23.4,19.1-35,28.8c-6.5,5.4-11.9,11.3-14.3,17.9c-6.3,17.7-10.6,35.9-6.9,53.9c5.9,28.8,17.9,56.6,41.5,81.9
	c9.1,9.7,18.3,19.6,21.8,31c3,9.6,3.5,19.2-4.5,28.1c-5.9,6.6-16.4,7-23.1,0.9c-6-5.5-9.7-11.5-9.7-18.3s-1.1-13.9,1.4-20.8
	c0.6-1.8,0.6-3.9-2.2-4.6c-3.1-0.7-4.8,1.3-5.9,2.8c-5.2,7.2-12,13.8-15.1,21.6c-12.7,32.6-2.1,62.6,25.1,90.6
	c5.6,5.7,13.3,10.3,22.3,14.1c13.7-29.4,39.5-55.2,60-82.5c6.5-8.7,7.9-17.4-0.1-25.9c-13.2-14-9.3-28.9-5.4-43.8
	c0.1-1.2,1.2-2.2,2.5-2.1c2.2,0,2.7,1.3,2.7,2.5c0.2,5,0,10,1.9,14.9c1.7,4.7,5.6,8.3,12.7,9.5c12.4,2.1,18.7,7.1,20.8,14.9
	c0.8,3.1,1.8,6.1,3,9c1.4,3.2,3.6,6.2,10.1,6.2c6.1,0.1,9.5-2,11.4-5.4c5.6-10.1-1.8-18.7-9.6-26.5c-9.2-9.3-17.7-18.3-15.9-29.9
	c1.5-10.2,6.1-19.8,13.2-27.3c8.9-9.6,21.5-17.7,27.8-28.3c4.3-7.3,6.8-14.8,1.9-22.4c-0.7-1.1-1.4-2.3,0.7-3s3.3,0.6,4.2,1.5
	c3.5,3.6,7.4,6.9,8.5,11.3c3.3,13.6,3.2,26.8-7.2,39.3c-2.7,3.2-4.2,6.8-3.9,10.6c0.2,2.3,1.1,4.2,4.4,5.3c3.6,1.2,6.4-0.4,9-1.6
	c4.7-2.2,8.3-6.4,9.7-11.5c4.6-14.4,5.9-28.9,2.7-43.5c-2.1-9.5,1-18.8,6.5-27.7c3.1-5,7.4-9.7,11.2-14.5c1-1.2,2.1-2.5,4.7-2
	c1.5,0.3,2.3,1.2,2,2.3c-6.2,22,6.9,41.4,19.4,61.2c7.4,11.6,14,23.8,12,37c-1.8,12-7,23.3-14.2,34.4c-4.7,7.2-9.3,14.6-12.1,22.3
	c-2.3,6.3,3.4,15,11.9,17.8c11.8,3.9,19.4,1,20-7.5c0.6-8.7-3.2-17.2-1.9-25.9c0-1.3,0.1-2.7,0.3-4c0.3-1.2,1.4-2.2,3.6-2.1
	c1.7,0.1,3,0.9,3,1.9c0,3.5,1.8,6.5,4.4,9.1L2017,476.3z M1960.9,360.1c-3.1,2.6-5.2,6.2-5.7,10.2c-0.2,1.2-0.2,2.5-2.6,2.6
	s-2.6-1.3-3.2-2.4c-2.9-5.3-6.4-10.5-5.1-15.8c-0.9-8.5,4.9-15.5,8.8-22.7c1.7-3.2,5-4,7.8-0.3
	C1967.8,341.2,1972,350.6,1960.9,360.1L1960.9,360.1z"/>
<path class="st0" d="M1649.4,548.8c-6.5-8.7-7.9-17.4,0.1-25.9c13.2-14,9.3-28.9,5.4-43.8c-0.1-1.2-1.2-2.2-2.5-2.1
	c-2.2,0-2.7,1.3-2.7,2.5c-0.2,5,0,10-1.9,14.9c-1.7,4.7-5.6,8.4-12.7,9.5c-12.4,2.1-18.7,7.1-20.8,14.9c-0.8,3.1-1.8,6.1-3,9
	c-1.4,3.2-3.6,6.2-10.1,6.2c-6.1,0.1-9.5-2-11.4-5.4c-5.6-10.1,1.8-18.7,9.6-26.5c9.2-9.3,17.7-18.3,15.9-29.9
	c-1.5-10.2-6.1-19.8-13.2-27.3c-8.9-9.6-21.5-17.7-27.8-28.3c-4.3-7.3-6.8-14.8-1.9-22.4c0.7-1.1,1.4-2.3-0.7-3s-3.3,0.6-4.2,1.5
	c-3.5,3.6-7.4,6.9-8.5,11.3c-3.3,13.6-3.2,26.8,7.2,39.3c2.7,3.2,4.2,6.8,3.9,10.6c-0.2,2.3-1.1,4.2-4.4,5.3c-3.6,1.2-6.4-0.4-9-1.6
	c-4.7-2.2-8.3-6.4-9.7-11.5c-4.6-14.4-5.9-28.9-2.7-43.5c2.1-9.5-1-18.8-6.5-27.7c-3.1-5-7.4-9.7-11.2-14.5c-1-1.2-2.1-2.5-4.7-2
	c-1.5,0.3-2.3,1.2-2,2.3c6.2,22-6.9,41.4-19.4,61.2c-7.4,11.6-14,23.8-12,37c1.8,12,7,23.3,14.2,34.4c4.7,7.2,9.3,14.6,12.1,22.3
	c2.3,6.3-3.4,15-11.9,17.8c-11.8,3.9-19.4,1-20-7.5c-0.6-8.7,3.2-17.2,1.9-25.9c0-1.3-0.1-2.7-0.3-4c-0.3-1.2-1.4-2.2-3.6-2.1
	c-1.7,0.1-3,0.9-3,1.9c-0.1,8.6-10.4,13.6-17.5,19.6c-8.9,7.6-9.9,16.1-7.6,24.7c3.1,11.7,7.6,23.3,11.4,34.9
	c0.2,0.5,0.4,1.1,0.5,1.7c0.3,2.9,0.4,7-3.7,7.5c-4.4,0.6-4.1-3.6-5.2-5.8c-4.2-8.4-10.3-15.7-17.8-21.2
	c-20.5-15-19.8-31.3-9.4-48.5c5.4-8.9,13.8-17.2,15.5-26.9c2.7-15.6,1-30.8-11.8-44.7c-1.3-1.5-2.7-3.5-5.8-2.9
	c-2.8,0.5-1.7,2.7-1.5,4.1c2.9,20-10.3,36-28.5,51.3c-13.1,11-25.2,22.5-27.6,37c-3.7,22.6-2.1,44.8,7.8,66.8
	c6.7,14.9,15.9,29,27.2,42.7c1.9,2.3,4.6,4.6,4.7,7.4c-25.5-8.8-44.8-21.9-62-36.4c-4.8-4.1-8.5-9.3-10.9-15.2
	c-7.2-16.8-11.8-33.9-11.7-51.3c0.3-35.4,15.1-68.5,38.3-100.3c10.6-14.5,21.4-28.9,30.9-43.7c7-10.9,6-21.1-5.4-30.5
	c-4.3-3.6-7.9-7.9-10.9-12.6c-8.8-13.8-5.5-28.1-4.4-42.3c0.1-1.2,1-2.4,3.2-2.3c2.7,0.2,3,1.8,3.2,3.1c0.9,5.8,1.7,11.5,4.6,17.1
	c3.7,7,9.8,12.7,21.8,14c14.2,1.5,22.2,7.1,26.9,15.3c2.6,4.5,4.3,9.2,7,13.7c2.4,4.2,7.2,6.6,14.6,6.2s11.3-3.3,13.3-7.5
	c2.3-4.8,1.6-9.5-1.6-14.1c-6.1-8.9-13.2-17.3-23.9-24.4c-9.6-6.3-14.9-14-16.8-22.6c-3.7-16.9,2.2-32.5,15.5-47.1
	c6.4-7,13.3-13.8,19.7-20.8c13.2-14.2,19.5-29,8.4-45.1c-0.9-1.3-1.6-2.8,0.7-3.6s3.9,0.5,5.2,1.5c5.7,4.3,12,8.6,13.6,14.2
	c4.6,15.6,10.8,31.3,0.8,47.2c-2.7,4.6-5.1,9.4-7.1,14.3c-1.6,3.3-1.1,7.3,1.3,10.2c3.2,4.1,8,5,14.1,2.5c4.7-1.9,7.9-4.7,9.8-8.1
	c10.1-18.3,10.5-37.2,5.2-55.9c-7.1-25.1-3.4-48.7,17.1-70.9c1.4-1.6,2.1-4.3,5.8-3.6s4,3.2,3.1,5.4c-1.4,3.4-1.4,6.9-1.4,10.3
	c0.4,18.7,8,36.2,21.4,52.7c8.6,10.6,15.7,21.6,23,32.6c15.8,23.6,13.5,46.9,0.7,70.5c-5.2,9.5-10.3,18.9-15.2,28.4
	c-2.4,4.6-3.8,9.3-2.8,14.2c1.8,9,13.3,16.4,26.7,16.9c8.8,0.3,13.7-2,15.1-7.6c1.1-4.6,1.8-9.2,0-13.8c-3.3-8.3-3.4-16.8-3.4-25.3
	c0-1.8-1.2-4.4,2.6-4.9c4.3-0.5,5.4,2,5.8,4.2c1,5.3,5.5,9.2,11,13s10.7,7.2,15.7,11.1c8.7,6.7,12.1,14.3,10.6,23.1
	c-1.9,10.7-4.9,21.2-9,31.2c-3,7.3-5.2,14.7-3.1,22.3c0.5,1.9,0.6,4.5,3.9,4.7c3.9,0.3,3.6-2.6,4.3-4.3
	c5.2-12.3,14.8-23.1,27.6-32.8c14.3-10.8,17.8-23.2,14.6-36.9c-2.8-11.7-11.4-21.8-19.9-32.1c-20.6-24.8-19.2-50-1.6-75.1
	c2.2-3.1,4.4-8.5,10.2-7.6c5,0.7,2.7,6.2,2.7,9.4c-0.1,18.5,8.5,34.8,26.6,49.2c11.9,9.5,23.4,19.1,35,28.8
	c6.5,5.4,11.9,11.3,14.3,17.9c6.3,17.7,10.6,35.9,6.9,53.9c-5.9,28.8-17.9,56.6-41.5,81.9c-9.1,9.7-18.3,19.6-21.8,31
	c-3,9.6-3.5,19.2,4.5,28.1c5.9,6.6,16.4,7,23.1,0.9c6-5.5,9.7-11.5,9.7-18.3s1.1-13.9-1.4-20.8c-0.6-1.8-0.6-3.9,2.2-4.6
	c3.1-0.7,4.8,1.3,5.9,2.8c5.2,7.1,12,13.8,15.1,21.6c12.7,32.7,2.2,62.7-25.1,90.7c-5.6,5.7-13.3,10.3-22.3,14.1
	C1695.8,601.9,1669.9,576.1,1649.4,548.8z M1456.3,438.5c7.4,4.6,10.1,9.8,6.7,16.1c-0.7,1.4-2.7,3.1,0.8,3.9
	c3.2,0.6,3.7-1.6,4.8-2.8c10.7-12.2,13.5-24.4,1.6-37.1c-5.5-5.9-8.8-12.2-5.2-19.2c0.6-1.1,1.3-2.9-1.1-3.6c-2.7-0.7-3.4,1-4.4,2.2
	c-6.7,8-13.1,16.1-12.3,25.7C1446.2,429.5,1449.8,434.5,1456.3,438.5z M1537.9,304.3c-1.7-3.2-5-4-7.8-0.3
	c-7,9.4-11.2,18.8-0.2,28.3c3.1,2.6,5.2,6.2,5.7,10.2c0.2,1.2,0.2,2.5,2.6,2.6s2.6-1.3,3.2-2.4c2.9-5.3,6.4-10.5,5.1-15.8
	C1547.6,318.5,1541.8,311.5,1537.9,304.3L1537.9,304.3z"/>
<path class="st0" d="M1416.3,615c-6.5-8.7-7.9-17.4,0.1-25.9c13.2-14,9.3-28.9,5.4-43.8c-0.1-1.2-1.2-2.2-2.5-2.1
	c-2.2,0-2.7,1.3-2.7,2.5c-0.2,5,0,10-1.9,14.9c-1.7,4.7-5.6,8.3-12.7,9.5c-12.4,2.1-18.7,7.1-20.8,14.9c-0.8,3.1-1.8,6.1-3,9
	c-1.4,3.2-3.6,6.2-10.1,6.2c-6.1,0.1-9.5-2-11.4-5.4c-5.6-10.1,1.8-18.7,9.6-26.5c9.2-9.3,17.7-18.3,15.9-29.9
	c-1.5-10.2-6.1-19.8-13.2-27.3c-8.9-9.6-21.5-17.7-27.8-28.3c-4.3-7.3-6.8-14.8-1.9-22.4c0.7-1.1,1.4-2.3-0.7-3s-3.3,0.6-4.2,1.5
	c-3.5,3.6-7.4,6.9-8.5,11.3c-3.3,13.6-3.2,26.8,7.2,39.3c2.7,3.2,4.2,6.8,3.9,10.6c-0.2,2.3-1.1,4.2-4.4,5.3c-3.6,1.2-6.4-0.4-9-1.7
	c-4.7-2.2-8.3-6.4-9.7-11.5c-4.6-14.4-5.9-28.9-2.7-43.5c2.1-9.5-1-18.8-6.5-27.7c-3.1-5-7.4-9.7-11.2-14.5c-1-1.2-2.1-2.5-4.7-2
	c-1.5,0.3-2.3,1.2-2,2.3c6.2,22-6.9,41.4-19.4,61.2c-7.4,11.6-14,23.8-12,37c1.8,12,7,23.3,14.2,34.4c4.7,7.2,9.3,14.6,12.1,22.3
	c2.3,6.3-3.4,15-11.9,17.8c-11.8,3.9-19.4,1-20-7.5c-0.6-8.7,3.2-17.2,1.9-25.9c0-1.3-0.1-2.7-0.3-4c-0.3-1.2-1.4-2.2-3.6-2.1
	c-1.7,0.1-3,0.9-3,1.9c-0.1,8.6-10.4,13.6-17.5,19.6c-8.9,7.6-9.9,16.1-7.6,24.7c3.1,11.7,7.6,23.3,11.4,34.9
	c0.2,0.5,0.4,1.1,0.5,1.7c0.3,2.9,0.4,7-3.7,7.5c-4.4,0.6-4.1-3.6-5.2-5.8c-4.2-8.4-10.3-15.7-17.8-21.2
	c-20.5-15-19.8-31.3-9.4-48.5c5.4-8.9,13.8-17.2,15.5-26.9c2.7-15.6,1-30.8-11.8-44.7c-1.3-1.5-2.7-3.5-5.8-2.9
	c-2.8,0.5-1.7,2.7-1.5,4.1c2.9,20-10.3,36-28.5,51.3c-13.1,11-25.2,22.5-27.6,37c-3.7,22.6-2.1,44.8,7.8,66.8
	c6.7,14.9,15.9,29,27.2,42.7c1.9,2.3,4.6,4.6,4.7,7.4c-25.5-8.8-44.8-21.9-62-36.4c-4.8-4.1-8.5-9.3-10.9-15.2
	c-7.2-16.8-11.8-33.9-11.7-51.3c0.3-35.3,15.1-68.5,38.3-100.3c10.6-14.5,21.4-28.9,30.9-43.7c7-10.9,6-21.1-5.4-30.5
	c-4.3-3.6-7.9-7.9-10.9-12.6c-8.8-13.8-5.5-28.1-4.4-42.3c0.1-1.2,1-2.4,3.2-2.3c2.7,0.2,3,1.8,3.2,3.1c0.9,5.8,1.7,11.5,4.6,17.1
	c3.7,7,9.8,12.7,21.8,14c14.2,1.5,22.2,7.1,26.9,15.3c2.6,4.5,4.3,9.2,7,13.7c2.4,4.2,7.2,6.6,14.6,6.2s11.3-3.3,13.3-7.5
	c2.3-4.8,1.6-9.5-1.6-14.1c-6.1-8.9-13.2-17.3-23.9-24.4c-9.6-6.3-14.9-14-16.8-22.6c-3.7-16.9,2.2-32.5,15.5-47.1
	c6.4-7,13.3-13.8,19.7-20.8c13.2-14.2,19.5-29,8.4-45.1c-0.9-1.3-1.6-2.8,0.7-3.6s3.9,0.5,5.2,1.5c5.7,4.3,12,8.6,13.6,14.2
	c4.6,15.6,10.8,31.3,0.8,47.2c-2.7,4.6-5.1,9.4-7.1,14.3c-1.6,3.3-1.1,7.3,1.3,10.2c3.2,4.1,8,5,14.1,2.5c4.7-1.9,7.9-4.7,9.8-8.1
	c10.1-18.3,10.5-37.2,5.2-56c-7.1-25.1-3.4-48.7,17.1-70.9c1.4-1.6,2.1-4.3,5.8-3.6s4,3.2,3.1,5.4c-1.4,3.4-1.4,6.9-1.4,10.3
	c0.4,18.7,8,36.2,21.4,52.7c8.6,10.6,15.7,21.6,23,32.6c15.8,23.6,13.5,46.9,0.7,70.5c-5.2,9.5-10.3,18.9-15.2,28.4
	c-2.4,4.6-3.8,9.3-2.8,14.2c1.8,9,13.3,16.4,26.7,16.9c8.8,0.3,13.7-2,15.1-7.6c1.1-4.6,1.8-9.2,0-13.8c-3.3-8.3-3.4-16.8-3.4-25.3
	c0-1.8-1.2-4.4,2.6-4.9c4.3-0.5,5.4,2,5.8,4.2c1,5.3,5.5,9.2,11,13s10.8,7.3,15.8,11.1c8.7,6.7,12.1,14.3,10.6,23.1
	c-1.9,10.7-4.9,21.2-9,31.2c-3,7.3-5.2,14.7-3.1,22.3c0.5,1.9,0.6,4.5,3.9,4.7c3.9,0.3,3.6-2.6,4.3-4.3
	c5.2-12.3,14.8-23.1,27.6-32.8c14.3-10.8,17.8-23.2,14.6-36.9c-2.8-11.7-11.4-21.8-19.9-32.1c-20.6-24.8-19.2-50-1.6-75.1
	c2.2-3.1,4.4-8.5,10.2-7.6c5,0.7,2.7,6.2,2.7,9.5c-0.1,18.5,8.5,34.8,26.6,49.2c11.9,9.5,23.4,19.1,35,28.8
	c6.5,5.4,11.9,11.3,14.3,17.9c6.3,17.7,10.6,35.9,6.9,53.9c-5.9,28.8-17.9,56.6-41.5,81.9c-9.1,9.7-18.3,19.6-21.8,31
	c-3,9.6-3.5,19.2,4.5,28.1c5.9,6.6,16.4,7,23.1,0.9c6-5.5,9.7-11.5,9.7-18.3s1.1-13.9-1.4-20.8c-0.6-1.8-0.6-3.9,2.2-4.6
	c3.1-0.7,4.8,1.3,5.9,2.8c5.2,7.2,12,13.8,15.1,21.6c12.7,32.7,2.2,62.7-25.1,90.7c-5.6,5.7-13.3,10.3-22.3,14.1
	C1462.6,668.1,1436.8,642.3,1416.3,615z M1223.2,504.7c7.4,4.6,10.1,9.8,6.7,16.1c-0.7,1.3-2.7,3.2,0.8,3.9c3.2,0.7,3.7-1.6,4.8-2.8
	c10.7-12.2,13.5-24.4,1.6-37.1c-5.5-5.9-8.8-12.2-5.2-19.2c0.6-1.1,1.3-2.9-1.1-3.6c-2.7-0.7-3.4,1-4.4,2.2
	c-6.7,8-13.1,16.1-12.3,25.7C1213.1,495.7,1216.7,500.7,1223.2,504.7z M1304.8,370.5c-1.7-3.2-5-4-7.8-0.3
	c-7,9.4-11.2,18.8-0.2,28.3c3.1,2.6,5.2,6.2,5.7,10.2c0.2,1.2,0.2,2.5,2.6,2.6s2.6-1.3,3.2-2.4c2.9-5.3,6.4-10.5,5.1-15.8
	C1314.4,384.7,1308.7,377.7,1304.8,370.5L1304.8,370.5z"/>
<path class="st1" d="M1260.5,66.7c-0.4,13.7-6.5,25.7-15.8,36.8c-7,8.5-15.7,16.4-13.7,27.8c0.2,1.7-1,3.2-2.7,3.4c0,0,0,0,0,0
	c-1.7,0.3-3.5-0.5-4.2-2.1c-0.7-1.3-1.7-2.7-1.9-4.1c-1.9-17.7-11.1-34-14.8-51.3c-2.7-12.5-0.3-24.4,7.3-35.4
	c7.3-10.5,12.7-21.6,15.4-33.5c0.5-2.4,1.2-4.8,3.4-6.7c1.3-1.1,3-2.1,4.7-1.4c1.1,0.7,1.7,1.8,1.8,3.1c0.2,14.7,9.1,27.2,14.7,40.6
	C1257.7,51.3,1260.7,58.7,1260.5,66.7z"/>
<path class="st1" d="M850.3,403.3c0.3-10.4,2.2-23.5,8.5-35.9c1.2-2.5,2.7-5,4.5-7.2c2-2.4,4.7-5.6,8.4-4.6c3.8,1.1,1.7,4.8,1.2,7.2
	c-3.2,17.2,0.9,34.9,11.4,48.8c11,15.1,15.7,31.6,19.8,48.4c3.4,13.7-3.3,24.9-13.9,35c-1.4,1.3-2.9,2.8-5.2,2.4
	c-2.6-0.5-4.2-2.4-4.1-4.4c1-18.5-11-33.1-20.9-48.5C852.3,432.7,850.2,419.6,850.3,403.3z"/>
<path class="st2" d="M1034.9,86.2c0.4-4.6-1.2-9.1-2.3-13.6c-0.4-1.7-0.6-3.6,2-4.3s3.9,0.8,4.9,2.3c11,15.9,19.8,32.4,19.5,51.1
	c-0.2,9.7-4.8,18.2-13.6,24.8c-11.1,8.3-13.9,17.9-8.8,29.2c1.2,2.6,2.9,5.7-1.2,7s-4.4-2.4-5.8-4.4c-1.9-2.8-3.3-5.8-5.2-8.5
	c-13.9-19.7-12.3-39.2,1.4-58.4C1031.4,103.6,1035.4,95.5,1034.9,86.2z"/>
<path class="st3" d="M1263.7,178c1.3-12.2,7.9-26,15.5-39.6c0.8-1.5,2.5-3.5,4.1-3.6c2.9-0.3,3.2,2.5,4.2,4.1
	c11.4,18.5,14.5,36.6-3.2,54.1c-4,3.9-4.4,9-4.4,13.9c0,2.3-0.6,4.9-3.6,5.3c-3.4,0.5-4.2-2.2-4.9-4.3
	C1268.2,199,1263.7,190.4,1263.7,178z"/>
<polygon class="st0" points="770.8,399.1 742.7,426.8 756.7,461.5 811,412.1 "/>
<polygon class="st0" points="314.6,317.3 280.4,344.3 297.5,368 330.7,344.3 "/>
<path class="st0" d="M1347.6,529.8l-67.4-74.6l-33.1-61.8l-47.8-43.6l-40.7-32.4l-18.1-27l18.1-41.7l-18.1-29.4l-25.1-9l-24.1,107
	l-55.3,52.3c0,0-32.2,50.7-48.2,60.5s-82.4,85-82.4,85l197,91.5h193.9L1347.6,529.8z"/>
<polygon class="st4" points="1924.9,504.4 1974.8,573.3 2012.8,574.4 2012.8,759 70.7,759 70.7,530.4 70.7,483.2 135.7,483.2 
	172.6,585.3 144.7,538.6 172.6,539.7 228.6,573.3 218.6,586.3 328.7,593.9 336.5,561.4 396.4,562.5 442.4,565.7 486.3,551.6 
	498.3,530.4 509.3,529.3 516.3,504.4 537.3,470.2 551.2,461.5 594.2,473.4 606.2,525 615.2,530.4 592.2,498.4 626.2,484.3 
	659.4,498.4 668.1,530.4 684.1,545.1 694.1,555.9 706.1,567.9 783,565.7 903.6,601 1155.6,562.5 1153.7,504.4 1226.6,484.3 
	1293.5,475.6 1311.5,541.8 1280.5,529.3 1304.5,548.9 1373.4,573.3 1365.4,587.4 1389.4,601 1543.3,598.8 1614.9,573.5 
	1509.3,610.2 1441.4,617.8 1445.3,583.1 1479.3,561.4 1605.2,563.5 1635.2,535.3 1651.2,525 1673.1,509.2 1682.1,496.8 
	1655.1,466.9 1709.1,466.9 1792,504.4 1805,535.3 1809,562.5 1878.9,565.7 "/>
<path class="st4" d="M1068.3,627.6c-6.5-7.3-7.8-14.7,0.1-21.8c13.1-11.9,9.2-24.4,5.4-36.9c-0.2-1.1-1.3-1.9-2.5-1.8
	c-2.2,0-2.7,1.1-2.7,2.1c-0.2,4.2,0,8.4-1.8,12.6c-1.7,4-5.5,7-12.7,8c-12.3,1.7-18.6,6-20.7,12.6c-0.8,2.6-1.7,5.2-2.9,7.6
	c-1.4,2.7-3.6,5.2-10.1,5.3c-6,0-9.5-1.7-11.3-4.5c-5.5-8.5,1.8-15.8,9.5-22.4c9.1-7.8,17.6-15.4,15.8-25.2
	c-1.5-8.2-5.3-15.9-13.1-23c-8.9-8.1-21.3-14.9-27.6-23.8c-4.3-6.1-6.8-12.5-1.9-18.9c0.7-1,1.4-2-0.7-2.5c-1.5-0.4-3.1,0.1-4.2,1.3
	c-3.5,3-7.4,5.8-8.5,9.6c-3.2,11.4-3.2,22.6,7.2,33.2c2.7,2.7,4.2,5.7,3.9,8.9c-0.2,2-1.1,3.6-4.3,4.5c-3.6,1-6.4-0.3-8.9-1.4
	c-5.8-2.4-8.3-6.1-9.6-9.7c-4.6-12.2-5.9-24.4-2.7-36.8c2-8-1-15.9-6.4-23.3c-3.1-4.2-7.4-8.2-11.1-12.2c-1.1-1.4-2.9-2.1-4.7-1.7
	c-1.5,0.2-2.3,1-2,1.9c6.2,18.6-6.8,35-19.2,51.6c-7.3,9.8-13.9,20.1-12,31.2c1.8,10.1,7,19.7,14.2,29c4.7,6.1,9.2,12.3,12.1,18.8
	c2.3,5.3-3.4,12.7-11.8,15c-11.7,3.3-19.3,0.8-19.8-6.3c-0.6-7.3,3.2-14.5,1.9-21.8c0-1.1-0.1-2.3-0.3-3.4c-0.3-1-1.4-1.8-3.6-1.8
	c-1.7,0-3,0.8-3,1.6c-0.1,7.3-10.4,11.5-17.4,16.5c-8.9,6.4-9.8,13.6-7.5,20.9c3.1,9.9,7.5,19.6,11.3,29.4c0.2,0.5,0.4,0.9,0.5,1.4
	c0.3,2.5,0.4,5.9-3.7,6.3c-4.3,0.5-4-3.1-5.1-4.9c-4.4-7.3-10.4-13.5-17.7-17.9c-20.3-12.7-19.6-26.4-9.4-41
	c5.3-7.5,13.8-14.5,15.4-22.7c2.7-13.1,1-26-11.7-37.7c-1.3-1.2-2.7-3-5.7-2.5c-2.8,0.5-1.7,2.3-1.5,3.5
	c2.9,16.8-10.2,30.4-28.4,43.3c-13,9.3-25.1,19-27.4,31.2c-3.6,19-2.1,37.8,7.8,56.3c6.7,12.6,15.8,24.5,27,36
	c1.9,2,4.5,3.9,4.7,6.3c-25.3-7.4-44.5-18.5-61.7-30.7c-4.6-3.3-8.3-7.7-10.8-12.8c-7.2-14.2-11.8-28.6-11.6-43.3
	c0.3-29.8,15-57.8,38.1-84.6c10.5-12.2,21.3-24.4,30.8-36.9c7-9.1,5.9-17.8-5.4-25.8c-4.2-2.9-7.8-6.5-10.8-10.6
	c-8.7-11.6-5.5-23.7-4.3-35.7c0.1-1,1-2,3.2-1.9c2.7,0.1,3,1.5,3.2,2.6c0.9,4.9,1.7,9.7,4.5,14.4c3.6,5.9,9.7,10.7,21.7,11.8
	c14.1,1.3,22.1,6,26.7,12.9c2.6,3.8,4.3,7.8,6.9,11.6c2.4,3.5,7.1,5.6,14.5,5.3s11.2-2.8,13.2-6.3c2.3-4.1,1.6-8-1.5-11.9
	c-6.1-7.5-13.1-14.6-23.7-20.5c-9.5-5.3-14.8-11.8-16.7-19.1c-3.7-14.2,2.2-27.5,15.5-39.8c6.3-5.9,13.2-11.6,19.6-17.5
	c13.1-12,19.4-24.5,8.4-38c-0.9-1.1-1.5-2.4,0.7-3s3.8,0.5,5.2,1.3c5.7,3.6,11.9,7.3,13.5,12c4.5,13.2,10.8,26.4,0.8,39.8
	c-2.7,3.8-5,7.9-7,12.1c-1.6,2.8-1.1,6.4,1.3,8.6c3.2,3.5,8,4.2,14,2.1c4.7-1.6,7.8-4,9.7-6.8c10-15.5,10.5-31.4,5.2-47.2
	c-7.1-21.2-3.4-41.1,17-59.8c1.4-1.3,2.1-3.6,5.8-3s4,2.7,3.1,4.6c-1.4,2.9-1.4,5.8-1.4,8.7c0.4,15.8,8,30.5,21.3,44.4
	c8.6,9,15.6,18.3,22.9,27.5c15.7,19.9,13.4,39.6,0.7,59.5c-5.1,8-10.2,16-15.1,24c-2.4,3.9-3.8,7.9-2.8,12
	c1.8,7.6,13.3,13.8,26.6,14.3c8.8,0.3,13.7-1.7,15-6.4c1.1-3.9,1.8-7.8,0-11.6c-3.3-7-3.4-14.2-3.4-21.3c0-1.5-1.2-3.8,2.6-4.2
	c4.3-0.5,5.4,1.7,5.8,3.5c1,4.5,5.4,7.8,10.9,10.9s10.7,6.1,15.7,9.4c8.6,5.6,12,12.1,10.5,19.5c-1.9,9.1-4.9,18-8.9,26.4
	c-2.9,6.2-5.2,12.4-3.1,18.8c0.5,1.6,0.6,3.8,3.9,4c3.9,0.2,3.6-2.2,4.3-3.6c5.2-10.4,14.8-19.5,27.5-27.7
	c14.2-9.1,17.8-19.6,14.5-31.1c-2.8-9.8-11.4-18.4-19.8-27c-20.5-21-19.1-42.2-1.6-63.4c2.2-2.6,4.4-7.2,10.1-6.5
	c5,0.6,2.7,5.2,2.6,8c-0.1,15.6,8.5,29.4,26.5,41.5c11.8,8,23.3,16.1,34.8,24.3c6.4,4.5,11.8,9.5,14.2,15.1
	c6.3,15,10.5,30.3,6.8,45.5c-5.9,24.3-17.8,47.8-41.2,69.1c-9,8.2-18.2,16.5-21.7,26.1c-3,8.1-3.4,16.2,4.5,23.7
	c5.9,5.6,16.3,5.9,23,0.7c5.9-4.6,9.7-9.7,9.6-15.5s1.1-11.7-1.3-17.5c-0.6-1.5-0.6-3.3,2.2-3.9c3-0.6,4.8,1.1,5.9,2.4
	c5.1,6,12,11.6,15,18.2c12.6,27.5,2.1,52.9-25,76.5c-5.5,4.8-13.3,8.7-22.2,11.9C1114.3,672.4,1088.7,650.7,1068.3,627.6z
	 M876.3,534.6c7.4,3.9,10,8.2,6.7,13.6c-0.7,1.1-2.7,2.7,0.8,3.3c3.2,0.5,3.6-1.3,4.7-2.4c10.7-10.3,13.5-20.6,1.6-31.3
	c-5.5-4.9-8.8-10.3-5.2-16.2c0.6-1,1.3-2.5-1.1-3c-2.7-0.6-3.4,0.9-4.3,1.8c-6.6,6.8-13.1,13.6-12.2,21.7
	C866.3,527,869.8,531.2,876.3,534.6L876.3,534.6z M957.4,421.4c-1.7-2.7-4.9-3.4-7.7-0.2c-7,7.9-11.1,15.8-0.2,23.9
	c3.4,2.5,5.2,5.5,5.7,8.6c0.2,1,0.2,2.1,2.6,2.2s2.6-1.1,3.2-2c2.9-4.5,6.4-8.8,5.1-13.3C967,433.3,961.3,427.5,957.4,421.4
	L957.4,421.4z"/>
<path class="st4" d="M1386,652.2c-6.5-5.8-7.8-11.5,0.1-17.2c13.1-9.3,9.2-19.2,5.4-29.1c-0.3-0.7-0.8-1.4-2.5-1.4
	c-2.2,0-2.7,0.9-2.7,1.7c-0.2,3.3,0,6.6-1.8,9.9c-1.7,3.1-5.5,5.5-12.7,6.3c-12.3,1.4-18.6,4.7-20.7,9.9c-0.8,2.1-1.8,4.1-2.9,6
	c-1.4,2.2-3.6,4.1-10.1,4.1c-6,0-9.4-1.3-11.3-3.6c-5.5-6.7,1.8-12.4,9.5-17.6c9.1-6.2,17.6-12.1,15.8-19.8
	c-1.5-6.5-5.3-12.5-13.1-18.1c-8.9-6.4-21.3-11.8-27.6-18.8c-4.3-4.8-6.8-9.8-1.9-14.9c0.7-0.8,1.4-1.5-0.7-2c-1.5-0.3-3,0-4.2,1
	c-3.5,2.4-7.4,4.6-8.4,7.5c-3.2,9-3.2,17.8,7.2,26.1c2.7,2.2,4.2,4.5,3.9,7c-0.2,1.5-1.1,2.8-4.3,3.5c-3.6,0.8-6.4-0.3-8.9-1.1
	c-5.8-1.9-8.3-4.8-9.6-7.6c-4.5-9.6-5.8-19.2-2.7-28.9c2-6.3-1-12.5-6.4-18.4c-3.1-3.3-7.4-6.4-11.1-9.6c-1.2-1.2-3-1.7-4.7-1.3
	c-1.5,0.2-2.3,0.8-2,1.5c6.2,14.7-6.8,27.5-19.2,40.6c-7.3,7.7-13.9,15.8-11.9,24.5c1.8,8,7,15.5,14.2,22.8
	c4.7,4.8,9.2,9.7,12.1,14.8c2.3,4.2-3.4,10-11.8,11.8c-11.7,2.6-19.3,0.6-19.8-5c-0.6-5.8,3.2-11.4,1.9-17.2c0-0.9-0.1-1.8-0.3-2.7
	c-0.3-0.8-1.4-1.5-3.6-1.4c-1.7,0-3,0.6-3,1.2c-0.1,5.7-10.4,9-17.4,13c-8.9,5.1-9.8,10.7-7.5,16.4c3.1,7.8,7.5,15.5,11.3,23.2
	c0.2,0.3,0.4,0.7,0.5,1.1c0.3,1.9,0.4,4.6-3.7,5c-4.3,0.4-4-2.4-5.1-3.8c-4.7-6-10.8-10.9-17.7-14.1c-20.3-10-19.6-20.8-9.4-32.2
	c5.3-5.9,13.8-11.4,15.4-17.9c2.7-10.3,1-20.4-11.7-29.7c-1.3-1-2.7-2.3-5.7-2c-2.8,0.4-1.7,1.8-1.5,2.7
	c2.9,13.3-10.2,23.9-28.4,34.1c-13,7.3-25.1,15-27.4,24.6c-3.6,15-2.1,29.7,7.8,44.3c6.7,9.9,15.8,19.3,27,28.3
	c1.9,1.6,4.5,3,4.7,4.9c-25.3-5.8-44.5-14.6-61.7-24.2c-4.4-2.4-8.1-5.9-10.8-10.1c-7.2-11.2-11.8-22.5-11.6-34.1
	c0.3-23.5,15-45.5,38.1-66.6c10.6-9.6,21.3-19.2,30.8-29c7-7.2,5.9-14-5.4-20.3c-4-2.2-7.7-5-10.8-8.4c-8.7-9.2-5.5-18.7-4.3-28.1
	c0.1-0.8,1-1.6,3.2-1.5c2.7,0.1,3,1.2,3.2,2c0.9,3.8,1.7,7.7,4.5,11.3c3.6,4.6,9.7,8.4,21.7,9.3c14.1,1,22.1,4.7,26.7,10.1
	c2.6,3,4.3,6.1,6.9,9.1c2.4,2.8,7.1,4.4,14.5,4.1s11.2-2.2,13.2-5c2.3-3.2,1.6-6.3-1.6-9.4c-6.8-6.8-14.9-12.3-23.7-16.2
	c-9.5-4.2-14.8-9.3-16.7-15c-3.7-11.2,2.2-21.6,15.4-31.3c6.3-4.6,13.2-9.2,19.6-13.8c13.1-9.4,19.4-19.3,8.4-30
	c-0.9-0.9-1.5-1.9,0.7-2.4s3.8,0.4,5.2,1c5.7,2.8,11.9,5.8,13.5,9.4c4.5,10.4,10.8,20.8,0.8,31.3c-2.6,2.9-5,6.1-7,9.5
	c-1.5,2.3-1.2,4.6,1.3,6.8c3.2,2.7,8,3.3,14,1.6c4.7-1.3,7.8-3.1,9.7-5.4c10.1-12.2,10.5-24.8,5.2-37.2c-7.1-16.7-3.4-32.4,17-47.1
	c1.4-1,2.1-2.9,5.8-2.4s4,2.1,3.1,3.6c-1.1,2.1-1.6,4.5-1.4,6.9c0.4,12.4,8,24,21.3,35c8.6,7,15.6,14.4,22.9,21.7
	c15.7,15.7,13.4,31.2,0.7,46.8c-5.1,6.3-10.2,12.6-15.1,18.9c-2.4,3-3.8,6.2-2.8,9.5c1.8,6,13.3,10.9,26.6,11.2
	c8.8,0.2,13.7-1.4,15-5.1c1.1-3,1.8-6.1,0-9.2c-3.3-5.5-3.4-11.2-3.4-16.8c0-1.2-1.2-3,2.6-3.3c4.3-0.4,5.4,1.4,5.8,2.8
	c1,3.5,5.4,6.1,10.9,8.6c5.5,2.5,10.7,4.8,15.7,7.4c8.6,4.5,12,9.5,10.5,15.4c-1.9,7.3-5,14.3-8.9,20.8c-2.9,4.8-5.2,9.8-3.1,14.8
	c0.5,1.2,0.6,3,3.9,3.2c3.9,0.2,3.6-1.7,4.3-2.8c5.2-8.2,14.8-15.4,27.5-21.8c14.2-7.2,17.8-15.5,14.5-24.5
	c-2.8-7.8-11.4-14.5-19.8-21.3c-20.5-16.5-19.1-33.2-1.6-49.9c2.2-2.1,4.4-5.6,10.1-5.1c5,0.5,2.7,4.1,2.6,6.3
	c-0.1,12.3,8.5,23.1,26.5,32.7c11.8,6.3,23.3,12.7,34.8,19.1c6.4,3.6,11.8,7.5,14.2,11.9c6.3,11.8,10.5,23.9,6.8,35.8
	c-5.9,19.1-17.8,37.6-41.2,54.4c-9,6.5-18.2,13-21.7,20.6c-3,6.4-3.4,12.8,4.5,18.7c5.9,4.4,16.3,4.7,23,0.6
	c5.9-3.7,9.7-7.6,9.6-12.2s1.1-9.2-1.3-13.8c-0.6-1.2-0.6-2.6,2.2-3c2.2-0.4,4.4,0.3,5.9,1.9c5.1,4.8,12,9.2,15,14.3
	c12.6,21.7,2.1,41.6-25,60.2c-5.5,3.8-13.3,6.9-22.2,9.3C1432,687.5,1406.3,670.3,1386,652.2z M1194,578.9c7.4,3.1,10,6.5,6.7,10.7
	c-0.7,0.9-2.7,2.1,0.8,2.6c3.2,0.4,3.6-1,4.7-1.8c10.7-8.1,13.5-16.2,1.6-24.7c-5.5-3.9-8.8-8.1-5.2-12.8c0.6-0.8,1.3-2-1.1-2.4
	c-2.7-0.5-3.4,0.7-4.3,1.4c-6.6,5.3-13.1,10.7-12.2,17C1183.9,572.9,1187.5,576.2,1194,578.9L1194,578.9z M1275.1,489.7
	c-1.7-2.1-4.9-2.7-7.7-0.2c-7,6.2-11.1,12.5-0.2,18.8c3.4,2,5.2,4.3,5.7,6.8c0.2,0.8,0.2,1.7,2.6,1.7c1.3,0.2,2.6-0.4,3.2-1.6
	c2.9-3.5,6.4-7,5.1-10.5C1284.7,499.2,1278.9,494.5,1275.1,489.7L1275.1,489.7z"/>
<path class="st4" d="M1517.2,688.5c-8.9-2.5-16.6-5.5-22.2-9.3c-27.1-18.6-37.6-38.6-25-60.2c3-5.2,9.8-9.6,15-14.3
	c1.5-1.6,3.7-2.3,5.9-1.9c2.8,0.4,2.8,1.9,2.2,3c-2.5,4.6-1.3,9.2-1.3,13.8s3.7,8.5,9.6,12.2c6.7,4.1,17.1,3.8,23-0.6
	c7.9-5.9,7.4-12.3,4.5-18.7c-3.5-7.5-12.7-14.1-21.7-20.6c-23.5-16.8-35.3-35.3-41.2-54.4c-3.7-12,0.5-24,6.8-35.8
	c2.3-4.4,7.7-8.3,14.2-11.9c11.5-6.4,22.9-12.8,34.8-19.1c18-9.6,26.6-20.5,26.5-32.7c0-2.2-2.3-5.8,2.6-6.3c5.7-0.6,7.9,3,10.1,5.1
	c17.5,16.7,18.9,33.4-1.6,49.9c-8.4,6.8-17,13.5-19.8,21.3c-3.3,9,0.3,17.3,14.5,24.5c12.7,6.4,22.3,13.6,27.5,21.8
	c0.7,1.1,0.4,3,4.3,2.8c3.3-0.2,3.4-1.9,3.9-3.2c2.1-5-0.2-10-3.1-14.8c-4-6.4-7-13.4-8.9-20.8c-1.5-5.9,1.9-10.9,10.5-15.4
	c5-2.6,10.3-5,15.7-7.4s9.9-5.1,10.9-8.6c0.4-1.4,1.5-3.1,5.8-2.8c3.8,0.3,2.6,2.1,2.6,3.3c0,5.6-0.1,11.3-3.4,16.8
	c-1.8,3-1.1,6.1,0,9.2c1.3,3.7,6.2,5.3,15,5.1c13.3-0.3,24.8-5.2,26.6-11.2c1-3.3-0.4-6.4-2.8-9.5c-4.9-6.3-10-12.6-15.1-18.9
	c-12.8-15.6-15-31.1,0.7-46.8c7.3-7.3,14.3-14.6,22.9-21.7c13.3-11,20.9-22.6,21.3-35c0.3-2.4-0.2-4.8-1.4-6.9
	c-0.9-1.5-0.4-3.1,3.1-3.6s4.3,1.3,5.8,2.4c20.4,14.7,24.1,30.4,17,47.1c-5.3,12.4-4.8,25,5.2,37.2c1.9,2.2,5,4.1,9.7,5.4
	c6,1.7,10.8,1.1,14-1.6c2.5-2.2,2.8-4.5,1.3-6.8c-2-3.4-4.4-6.6-7-9.5c-10-10.5-3.7-21,0.8-31.3c1.6-3.7,7.8-6.6,13.5-9.4
	c1.3-0.7,2.9-1.6,5.2-1s1.6,1.5,0.7,2.4c-11,10.7-4.7,20.5,8.4,30c6.4,4.6,13.2,9.1,19.6,13.8c13.2,9.7,19.1,20.1,15.4,31.3
	c-1.9,5.7-7.2,10.8-16.7,15c-8.9,3.9-16.9,9.3-23.7,16.2c-3.1,3-3.8,6.2-1.6,9.4c2,2.8,6,4.7,13.2,5s12.1-1.4,14.5-4.1
	c2.6-3,4.4-6.1,6.9-9.1c4.6-5.4,12.6-9.1,26.7-10.1c12-0.9,18-4.7,21.7-9.3c2.9-3.7,3.6-7.5,4.5-11.3c0.2-0.9,0.5-1.9,3.2-2
	c2.2-0.1,3.1,0.7,3.2,1.5c1.1,9.4,4.4,19-4.3,28.1c-3.1,3.3-6.8,6.2-10.8,8.4c-11.3,6.3-12.4,13.1-5.4,20.3
	c9.5,9.8,20.2,19.4,30.8,29c23.1,21.1,37.7,43.1,38.1,66.6c0.2,11.6-4.4,23-11.6,34.1c-2.7,4.2-6.4,7.7-10.8,10.1
	c-17.2,9.6-36.3,18.4-61.7,24.2c0.2-1.9,2.7-3.4,4.7-4.9c11.2-9.1,20.3-18.4,27-28.3c9.9-14.6,11.4-29.4,7.8-44.3
	c-2.3-9.6-14.4-17.3-27.4-24.6c-18.1-10.1-31.3-20.8-28.4-34.1c0.2-0.9,1.3-2.4-1.5-2.7c-3.1-0.4-4.4,1-5.7,2
	c-12.7,9.3-14.3,19.4-11.7,29.7c1.7,6.5,10.1,12,15.4,17.9c10.3,11.5,11,22.3-9.4,32.2c-6.9,3.2-13,8.1-17.7,14.1
	c-1.1,1.4-0.8,4.2-5.1,3.8c-4.1-0.4-4-3.1-3.7-5c0.1-0.4,0.3-0.8,0.5-1.1c3.8-7.7,8.2-15.4,11.3-23.2c2.3-5.8,1.4-11.4-7.5-16.4
	c-7-4-17.3-7.3-17.4-13c0-0.6-1.3-1.2-3-1.2c-2.2,0-3.3,0.6-3.6,1.4c-0.2,0.9-0.3,1.8-0.3,2.7c-1.2,5.8,2.4,11.4,1.9,17.2
	c-0.5,5.6-8.2,7.5-19.8,5c-8.4-1.9-14.2-7.7-11.8-11.8c2.9-5.1,7.4-10,12.1-14.8c7.2-7.3,12.3-14.9,14.2-22.8
	c2-8.7-4.6-16.8-11.9-24.5c-12.4-13.1-25.4-26-19.2-40.6c0.3-0.7-0.5-1.3-2-1.5c-1.7-0.4-3.4,0.1-4.7,1.3c-3.8,3.2-8.1,6.3-11.1,9.6
	c-5.5,5.9-8.5,12.1-6.4,18.4c3.2,9.7,1.9,19.4-2.7,28.9c-1.3,2.8-3.9,5.7-9.6,7.6c-2.5,0.8-5.3,1.9-8.9,1.1c-3.3-0.7-4.2-2-4.3-3.5
	c-0.3-2.5,1.2-4.9,3.9-7c10.3-8.3,10.4-17.1,7.2-26.1c-1.1-2.9-5-5.2-8.4-7.5c-1.2-1-2.7-1.3-4.2-1c-2.1,0.4-1.4,1.2-0.7,2
	c4.9,5.1,2.4,10.1-1.9,14.9c-6.3,7-18.8,12.4-27.6,18.8c-7.8,5.6-11.6,11.7-13.1,18.1c-1.8,7.7,6.7,13.7,15.8,19.8
	c7.7,5.2,15,10.9,9.5,17.6c-1.9,2.2-5.3,3.6-11.3,3.6c-6.5,0-8.7-2-10.1-4.1c-1.2-1.9-2.2-3.9-2.9-6c-2.1-5.2-8.3-8.5-20.7-9.9
	c-7.1-0.8-10.9-3.2-12.7-6.3c-1.8-3.3-1.7-6.6-1.8-9.9c0-0.8-0.5-1.7-2.7-1.7c-1.7,0-2.2,0.7-2.5,1.4c-3.8,9.9-7.7,19.7,5.4,29.1
	c8,5.7,6.6,11.4,0.1,17.2C1556.5,651.9,1530.8,669,1517.2,688.5z M1777.9,550.5c0.8-6.4-5.6-11.7-12.2-17c-0.9-0.8-1.7-1.9-4.3-1.4
	c-2.4,0.4-1.7,1.6-1.1,2.4c3.6,4.7,0.3,8.9-5.2,12.8c-11.8,8.4-9.1,16.6,1.6,24.7c1.1,0.8,1.6,2.3,4.7,1.8c3.5-0.5,1.5-1.7,0.8-2.6
	c-3.3-4.2-0.8-7.6,6.7-10.7C1775.3,557.8,1778.9,554.4,1777.9,550.5L1777.9,550.5z M1679,486.4c-1.3,3.5,2.2,7,5.1,10.5
	c0.6,1.2,1.9,1.8,3.2,1.6c2.3,0,2.4-0.9,2.6-1.7c0.5-2.5,2.3-4.8,5.7-6.8c11-6.3,6.8-12.6-0.2-18.8c-2.8-2.5-6-2-7.7,0.2
	C1683.9,476.1,1678.2,480.7,1679,486.4z"/>
<path class="st4" d="M1701.9,662.9c-12.6,21.7-2.1,41.6,25,60.2c5.5,3.8,13.3,6.9,22.2,9.3c13.6-19.5,39.2-36.7,59.6-54.8
	c6.5-5.8,7.8-11.5-0.1-17.2c-13.1-9.3-9.2-19.2-5.4-29.1c0.3-0.7,0.8-1.4,2.5-1.4c2.2,0,2.7,0.9,2.7,1.7c0.2,3.3,0,6.6,1.8,9.9
	c1.7,3.1,5.5,5.5,12.7,6.3c12.3,1.4,18.6,4.7,20.7,9.9c0.8,2.1,1.8,4.1,2.9,6c1.4,2.2,3.6,4.1,10.1,4.1c6,0,9.4-1.3,11.3-3.6
	c5.5-6.7-1.8-12.4-9.5-17.6c-9.1-6.2-17.6-12.1-15.8-19.8c1.5-6.5,5.3-12.5,13.1-18.1c8.9-6.4,21.3-11.8,27.6-18.8
	c4.3-4.8,6.8-9.8,1.9-14.9c-0.7-0.8-1.4-1.5,0.7-2c1.5-0.3,3,0,4.2,1c3.5,2.4,7.4,4.6,8.4,7.5c3.2,9,3.2,17.8-7.2,26.1
	c-2.7,2.2-4.2,4.5-3.9,7c0.2,1.5,1.1,2.8,4.3,3.5c3.6,0.8,6.4-0.3,8.9-1.1c5.8-1.9,8.3-4.8,9.6-7.6c4.5-9.6,5.8-19.2,2.7-28.9
	c-2-6.3,1-12.5,6.4-18.4c3.1-3.3,7.4-6.4,11.1-9.6c1.2-1.2,3-1.7,4.7-1.3c1.5,0.2,2.3,0.8,2,1.5c-6.2,14.7,6.8,27.5,19.2,40.6
	c7.3,7.7,13.9,15.8,11.9,24.5c-1.8,8-7,15.5-14.2,22.8c-4.7,4.8-9.2,9.7-12.1,14.8c-2.3,4.2,3.4,10,11.8,11.8
	c11.7,2.6,19.3,0.6,19.8-5c0.6-5.8-3.2-11.4-1.9-17.2c0-0.9,0.1-1.8,0.3-2.7c0.3-0.8,1.4-1.5,3.6-1.4c1.7,0,3,0.6,3,1.2
	c0.1,5.7,10.4,9,17.4,13c8.9,5.1,9.8,10.7,7.5,16.4c-3.1,7.8-7.5,15.5-11.3,23.2c-0.2,0.3-0.4,0.7-0.5,1.1c-0.3,1.9-0.4,4.6,3.7,5
	c4.3,0.4,4-2.4,5.1-3.8c4.7-6,10.8-10.9,17.7-14.1c20.3-10,19.6-20.8,9.4-32.2c-5.3-5.9-13.8-11.4-15.4-17.9
	c-2.7-10.3-1-20.4,11.7-29.7c1.3-1,2.7-2.3,5.7-2c2.8,0.4,1.7,1.8,1.5,2.7c-0.7,3.1-0.5,6.4,0.6,9.4c-0.1-19.5-0.4-39-2-58.5
	c-0.3-4,2.1-8.2,6.2-11.6c-5.5,1.8-9.3,4.3-12,7.5s-4.3,6.1-6.9,9.1c-2.4,2.8-7.1,4.4-14.5,4.1s-11.2-2.2-13.2-5
	c-2.3-3.2-1.6-6.3,1.6-9.4c6.8-6.8,14.9-12.3,23.7-16.2c9.5-4.2,14.8-9.3,16.7-15c3.7-11.2-2.2-21.6-15.4-31.3
	c-6.3-4.6-13.2-9.2-19.6-13.8c-13.1-9.4-19.4-19.3-8.4-30c0.9-0.9,1.5-1.9-0.7-2.4s-3.8,0.4-5.2,1c-5.7,2.8-11.9,5.8-13.5,9.4
	c-4.5,10.4-10.8,20.8-0.8,31.3c2.6,2.9,5,6.1,7,9.5c1.5,2.3,1.2,4.6-1.3,6.8c-3.2,2.7-8,3.3-14,1.6c-4.7-1.3-7.8-3.1-9.7-5.4
	c-10.1-12.2-10.5-24.8-5.2-37.2c7.1-16.7,3.4-32.4-17-47.1c-1.4-1-2.1-2.9-5.8-2.4s-4,2.1-3.1,3.6c1.1,2.1,1.6,4.5,1.4,6.9
	c-0.4,12.4-8,24-21.3,35c-8.6,7-15.6,14.4-22.9,21.7c-15.7,15.7-13.4,31.2-0.7,46.8c5.1,6.3,10.2,12.6,15.1,18.9
	c2.4,3,3.8,6.2,2.8,9.5c-1.8,6-13.3,10.9-26.6,11.2c-8.8,0.2-13.7-1.4-15-5.1c-1.1-3-1.8-6.1,0-9.2c3.3-5.5,3.4-11.2,3.4-16.8
	c0-1.2,1.2-3-2.6-3.3c-4.3-0.4-5.4,1.4-5.8,2.8c-1,3.5-5.4,6.2-10.9,8.6s-10.7,4.8-15.7,7.4c-8.6,4.5-12,9.5-10.5,15.4
	c1.9,7.3,5,14.3,8.9,20.8c2.9,4.8,5.2,9.8,3.1,14.8c-0.5,1.2-0.6,3-3.9,3.2c-3.9,0.2-3.6-1.7-4.3-2.8c-5.2-8.2-14.8-15.4-27.5-21.8
	c-14.2-7.2-17.8-15.5-14.5-24.5c2.8-7.8,11.4-14.5,19.8-21.3c20.5-16.5,19.1-33.2,1.6-49.9c-2.2-2.1-4.4-5.6-10.1-5.1
	c-5,0.5-2.7,4.1-2.6,6.3c0.1,12.3-8.5,23.1-26.5,32.7c-11.8,6.3-23.3,12.7-34.8,19.1c-6.4,3.6-11.8,7.5-14.2,11.9
	c-6.3,11.8-10.5,23.9-6.8,35.8c5.9,19.1,17.8,37.6,41.2,54.4c9,6.5,18.2,13,21.7,20.6c3,6.4,3.4,12.8-4.5,18.7
	c-5.9,4.4-16.3,4.7-23,0.6c-5.9-3.7-9.7-7.6-9.6-12.2s-1.1-9.2,1.3-13.8c0.6-1.2,0.6-2.6-2.2-3c-2.2-0.4-4.4,0.3-5.9,1.9
	C1711.7,653.3,1704.9,657.7,1701.9,662.9z M1986.9,591.2c5.5-3.9,8.8-8.1,5.2-12.8c-0.6-0.8-1.3-2,1.1-2.4c2.7-0.5,3.4,0.7,4.3,1.4
	c6.6,5.3,13.1,10.7,12.2,17c1,3.9-2.6,7.2-9,9.9c-7.4,3.1-10,6.5-6.7,10.7c0.7,0.9,2.7,2.1-0.8,2.6c-3.2,0.4-3.6-1-4.7-1.8
	C1977.8,607.8,1975,599.6,1986.9,591.2L1986.9,591.2z M1910.8,530.3c-0.8-5.7,4.9-10.3,8.8-15.1c1.7-2.2,4.9-2.7,7.7-0.2
	c7,6.2,11.1,12.5,0.2,18.8c-3.4,2-5.2,4.3-5.7,6.8c-0.2,0.8-0.2,1.7-2.6,1.7c-1.3,0.2-2.6-0.4-3.2-1.6
	C1913,537.3,1909.5,533.9,1910.8,530.3L1910.8,530.3z"/>
<path class="st4" d="M0.1,710.9c1.1,0.9,2,1.8,2.1,2.9L0,713.3C0,712.5,0.1,711.7,0.1,710.9z"/>
<path class="st4" d="M66.6,622c2.6-1.8,4.3-3.7,4.3-6c0-0.6,1.3-1.2,3-1.2c2.2,0,3.3,0.6,3.6,1.4c0.2,0.9,0.3,1.8,0.3,2.7
	c1.2,5.8-2.4,11.4-1.9,17.2c0.5,5.6,8.2,7.5,19.8,5c8.4-1.9,14.2-7.7,11.8-11.8c-2.9-5.1-7.4-10-12.1-14.8
	c-7.2-7.3-12.3-14.9-14.2-22.8c-2-8.7,4.6-16.8,11.9-24.5c12.4-13.1,25.4-26,19.2-40.6c-0.3-0.7,0.5-1.3,2-1.5
	c1.7-0.4,3.4,0.1,4.7,1.3c3.8,3.2,8.1,6.3,11.1,9.6c5.5,5.9,8.5,12.1,6.4,18.4c-3.2,9.7-1.9,19.4,2.7,28.9c1.4,2.8,3.9,5.7,9.6,7.6
	c2.5,0.8,5.3,1.9,8.9,1.1c3.3-0.7,4.2-2,4.3-3.5c0.3-2.5-1.2-4.9-3.9-7c-10.3-8.3-10.4-17.1-7.2-26.1c1.1-2.9,5-5.2,8.4-7.5
	c1.2-1,2.7-1.3,4.2-1c2.1,0.4,1.4,1.2,0.7,2c-4.9,5.1-2.4,10.1,1.9,14.9c6.3,7,18.8,12.4,27.6,18.8c7.8,5.6,11.6,11.7,13.1,18.1
	c1.8,7.7-6.7,13.7-15.8,19.8c-7.7,5.2-15,10.9-9.5,17.6c1.9,2.2,5.3,3.6,11.3,3.6c6.5,0,8.6-2,10.1-4.1c1.2-1.9,2.2-3.9,2.9-6
	c2.1-5.2,8.3-8.5,20.7-9.9c7.1-0.8,10.9-3.2,12.6-6.3c1.8-3.3,1.7-6.6,1.8-9.9c0-0.8,0.5-1.7,2.7-1.7c1.7,0,2.2,0.7,2.5,1.4
	c3.8,9.9,7.7,19.7-5.4,29.1c-8,5.7-6.6,11.4-0.1,17.2c20.4,18.2,46,35.3,59.6,54.8c8.9-2.5,16.6-5.5,22.1-9.3
	c27.1-18.6,37.6-38.6,25-60.2c-3-5.2-9.9-9.6-15-14.3c-1.5-1.6-3.7-2.3-5.9-1.9c-2.8,0.4-2.8,1.9-2.1,3c2.5,4.6,1.3,9.2,1.4,13.8
	s-3.7,8.5-9.6,12.2c-6.7,4.1-17.1,3.8-23-0.6c-7.9-5.9-7.4-12.3-4.5-18.7c3.5-7.5,12.7-14.1,21.7-20.6
	c23.5-16.8,35.4-35.3,41.2-54.4c3.7-12-0.5-24-6.8-35.8c-2.4-4.4-7.7-8.3-14.2-11.9c-11.5-6.4-23-12.8-34.8-19.1
	c-18-9.6-26.6-20.5-26.5-32.7c0-2.2,2.3-5.8-2.6-6.3c-5.7-0.6-7.9,3-10.1,5.1c-17.5,16.7-18.9,33.4,1.5,49.9
	c8.4,6.8,17,13.5,19.8,21.3c3.3,9-0.3,17.3-14.5,24.5c-12.7,6.4-22.3,13.6-27.5,21.8c-0.7,1.1-0.4,3-4.3,2.8
	c-3.3-0.2-3.4-1.9-3.9-3.2c-2.1-5,0.2-10,3.1-14.8c4-6.4,7-13.4,8.9-20.8c1.5-5.9-1.9-10.9-10.5-15.4c-5-2.6-10.3-5-15.7-7.4
	s-9.9-5.1-10.9-8.6c-0.4-1.4-1.5-3.1-5.8-2.8c-3.8,0.3-2.6,2.1-2.6,3.3c0,5.6,0.1,11.3,3.4,16.8c1.8,3,1.1,6.1,0,9.2
	c-1.3,3.7-6.2,5.3-15,5.1c-13.3-0.3-24.8-5.2-26.6-11.2c-1-3.3,0.4-6.4,2.8-9.5c4.9-6.3,10-12.6,15.1-18.9
	c12.8-15.6,15-31.1-0.7-46.8c-7.3-7.3-14.3-14.6-22.9-21.7c-13.3-11-20.9-22.6-21.3-35c-0.3-2.4,0.2-4.8,1.4-6.9
	c0.9-1.5,0.4-3.1-3.1-3.6s-4.3,1.3-5.8,2.4c-20.4,14.7-24.1,30.4-17,47.1c5.3,12.4,4.8,25-5.2,37.2c-1.9,2.2-5,4.1-9.7,5.4
	c-6,1.7-10.8,1.1-14-1.6c-2.5-2.2-2.8-4.5-1.3-6.8c2-3.4,4.4-6.6,7-9.5c10-10.5,3.7-21-0.8-31.3c-1.6-3.7-7.8-6.6-13.5-9.4
	c-0.3-0.2-0.7-0.4-1.1-0.5v8.7c1.1,2.8,1.1,5.8,0,8.6v135.2c5.7,5.7,5,11.2,0,16.8L66.6,622z M122.5,488.5c2.8-2.5,6-2,7.7,0.2
	c3.9,4.8,9.6,9.4,8.8,15.1c1.3,3.5-2.2,7-5.1,10.5c-0.6,1.2-1.9,1.8-3.2,1.6c-2.3,0-2.4-0.9-2.6-1.7c-0.5-2.5-2.3-4.8-5.7-6.8
	C111.4,500.9,115.5,494.7,122.5,488.5z"/>
<path class="st4" d="M372.4,687.4c-8.9-2.5-16.6-5.5-22.1-9.3c-27.1-18.6-37.6-38.6-25-60.2c3-5.2,9.9-9.6,15-14.3
	c1.5-1.6,3.7-2.3,5.9-1.9c2.8,0.4,2.8,1.9,2.1,3c-2.5,4.6-1.3,9.2-1.4,13.8s3.7,8.5,9.6,12.2c6.7,4.1,17.1,3.8,23-0.6
	c7.9-5.9,7.4-12.3,4.5-18.7c-3.5-7.5-12.7-14.1-21.7-20.6c-23.5-16.7-35.4-35.3-41.2-54.4c-3.7-12,0.5-24,6.8-35.8
	c2.4-4.4,7.7-8.3,14.2-11.9c11.5-6.4,23-12.8,34.8-19.1c18-9.6,26.6-20.5,26.5-32.7c0-2.2-2.3-5.8,2.6-6.3c5.7-0.6,7.9,3,10.1,5.1
	c17.5,16.7,18.9,33.4-1.5,49.9c-8.4,6.8-17,13.5-19.8,21.3c-3.3,9,0.3,17.3,14.5,24.5c12.7,6.4,22.3,13.6,27.5,21.8
	c0.7,1.1,0.5,3,4.3,2.8c3.3-0.2,3.4-1.9,3.9-3.2c2.1-5-0.2-10-3.1-14.8c-4-6.4-7-13.4-9-20.8c-1.5-5.9,1.9-10.9,10.5-15.4
	c5-2.6,10.3-5,15.7-7.4s9.9-5.1,10.9-8.6c0.4-1.4,1.5-3.1,5.8-2.8c3.8,0.3,2.6,2.1,2.6,3.3c0,5.6-0.1,11.3-3.4,16.8
	c-1.8,3-1.1,6.1,0,9.2c1.3,3.7,6.2,5.3,15,5.1c13.3-0.3,24.8-5.2,26.6-11.2c1-3.3-0.4-6.4-2.8-9.5c-4.9-6.3-10-12.6-15.1-18.9
	c-12.8-15.6-15-31.1,0.7-46.8c7.3-7.3,14.3-14.6,22.9-21.7c13.3-11,20.9-22.6,21.3-35c0.3-2.4-0.2-4.8-1.4-6.9
	c-0.9-1.5-0.4-3.1,3.1-3.6s4.3,1.3,5.8,2.4c20.4,14.7,24.1,30.4,17,47.1c-5.3,12.4-4.8,25,5.2,37.2c1.9,2.2,5,4.1,9.7,5.4
	c6,1.7,10.8,1.1,14-1.6c2.5-2.2,2.8-4.5,1.3-6.8c-2-3.4-4.4-6.6-7-9.5c-10-10.5-3.7-21,0.8-31.3c1.6-3.7,7.8-6.6,13.5-9.4
	c1.3-0.7,2.9-1.6,5.2-1s1.6,1.5,0.7,2.4c-11,10.7-4.7,20.5,8.4,30c6.4,4.6,13.2,9.1,19.6,13.8c13.2,9.7,19.1,20.1,15.5,31.3
	c-1.9,5.7-7.2,10.8-16.7,15c-8.9,3.9-16.9,9.3-23.7,16.2c-3.1,3-3.8,6.2-1.5,9.4c2,2.8,6,4.7,13.2,5s12-1.5,14.4-4.2
	c2.6-3,4.4-6.1,6.9-9.1c4.6-5.4,12.6-9.1,26.7-10.1c12-0.9,18-4.7,21.7-9.3c2.9-3.7,3.6-7.5,4.5-11.3c0.2-0.9,0.5-1.9,3.2-2
	c2.2-0.1,3.1,0.7,3.2,1.5c1.1,9.4,4.4,19-4.3,28.1c-3.1,3.3-6.8,6.2-10.8,8.4c-11.3,6.3-12.4,13.1-5.4,20.3
	c9.5,9.8,20.2,19.4,30.8,29c23.1,21,37.7,43.1,38.1,66.6c0.2,11.6-4.4,23-11.6,34.1c-2.7,4.2-6.4,7.7-10.8,10.1
	c-17.2,9.6-36.3,18.4-61.7,24.2c0.2-1.9,2.7-3.4,4.7-4.9c11.2-9.1,20.3-18.4,27-28.3c9.9-14.6,11.4-29.4,7.8-44.3
	c-2.3-9.6-14.4-17.3-27.4-24.6c-18.1-10.1-31.3-20.8-28.4-34.1c0.2-0.9,1.3-2.4-1.5-2.7c-3.1-0.4-4.4,1-5.7,2
	c-12.7,9.3-14.3,19.4-11.7,29.7c1.7,6.5,10.1,12,15.4,17.9c10.3,11.5,11,22.3-9.4,32.2c-6.9,3.2-13,8-17.7,14.1
	c-1.1,1.4-0.8,4.2-5.1,3.8c-4.1-0.4-4-3.1-3.7-5c0.1-0.4,0.3-0.8,0.5-1.1c3.8-7.7,8.2-15.4,11.3-23.2c2.3-5.8,1.4-11.4-7.5-16.4
	c-7-4-17.3-7.3-17.4-13c0-0.6-1.3-1.2-3-1.2c-2.2,0-3.3,0.6-3.6,1.4c-0.2,0.9-0.3,1.8-0.3,2.7c-1.2,5.8,2.5,11.4,1.9,17.2
	c-0.5,5.6-8.2,7.5-19.8,5c-8.4-1.9-14.2-7.7-11.8-11.8c2.9-5.1,7.4-10,12.1-14.8c7.2-7.3,12.3-14.9,14.2-22.8
	c2-8.7-4.6-16.8-12-24.5c-12.4-13.1-25.4-26-19.2-40.6c0.3-0.7-0.5-1.3-2-1.5c-1.7-0.4-3.4,0.1-4.7,1.3c-3.8,3.2-8.1,6.3-11.1,9.6
	c-5.5,5.9-8.5,12.1-6.4,18.4c3.2,9.7,1.9,19.4-2.7,28.9c-1.3,2.8-3.9,5.7-9.6,7.6c-2.5,0.8-5.3,1.9-8.9,1.1c-3.3-0.7-4.2-2-4.3-3.5
	c-0.3-2.5,1.2-4.9,3.9-7c10.3-8.3,10.4-17.1,7.2-26.1c-1.1-2.9-5-5.2-8.5-7.5c-1.2-1-2.7-1.3-4.2-1c-2.1,0.4-1.4,1.2-0.7,2
	c4.9,5.1,2.4,10.1-1.9,14.9c-6.3,7-18.8,12.4-27.6,18.8c-7.8,5.6-11.6,11.7-13.1,18.1c-1.8,7.7,6.7,13.7,15.8,19.8
	c7.7,5.2,15,10.9,9.5,17.6c-1.9,2.2-5.3,3.6-11.3,3.6c-6.5,0-8.6-2-10.1-4.1c-1.2-1.9-2.2-3.9-3-6c-2.1-5.2-8.3-8.5-20.7-9.9
	c-7.1-0.8-10.9-3.2-12.6-6.3c-1.8-3.3-1.7-6.6-1.8-9.9c0-0.8-0.5-1.7-2.7-1.7c-1.7,0-2.2,0.7-2.5,1.4c-3.8,9.9-7.7,19.7,5.4,29.1
	c8,5.7,6.6,11.4,0.1,17.2C411.6,650.8,386,667.9,372.4,687.4z M633.1,549.4c0.8-6.4-5.6-11.7-12.2-17c-0.9-0.8-1.7-1.9-4.3-1.4
	c-2.4,0.4-1.7,1.6-1.1,2.4c3.6,4.7,0.3,8.9-5.2,12.8c-11.8,8.4-9.1,16.6,1.6,24.7c1.1,0.8,1.6,2.3,4.7,1.8c3.5-0.5,1.5-1.7,0.8-2.6
	c-3.3-4.2-0.8-7.6,6.7-10.7C630.5,556.7,634,553.3,633.1,549.4L633.1,549.4z M534.2,485.3c-1.3,3.5,2.2,7,5.1,10.5
	c0.6,1.2,1.9,1.8,3.2,1.6c2.3,0,2.4-0.9,2.6-1.7c0.5-2.5,2.3-4.8,5.7-6.8c11-6.3,6.8-12.6-0.2-18.8c-2.8-2.5-6-2-7.7,0.2
	C539,475,533.3,479.6,534.2,485.3L534.2,485.3z"/>
<path class="st4" d="M604.2,731.4c-8.9-2.5-16.6-5.5-22.2-9.3c-27.1-18.6-37.6-38.6-25-60.2c3-5.2,9.8-9.6,15-14.3
	c1.5-1.6,3.7-2.3,5.9-1.9c2.8,0.4,2.8,1.9,2.2,3c-2.5,4.6-1.3,9.2-1.3,13.8s3.7,8.5,9.6,12.2c6.7,4.1,17.1,3.8,23-0.6
	c7.9-5.9,7.4-12.3,4.5-18.7c-3.5-7.5-12.7-14.1-21.7-20.6c-23.5-16.8-35.3-35.3-41.2-54.4c-3.7-12,0.5-24,6.8-35.8
	c2.3-4.4,7.7-8.3,14.2-11.9c11.5-6.4,23-12.8,34.8-19.1c18-9.6,26.6-20.5,26.5-32.7c0-2.2-2.3-5.8,2.6-6.3c5.7-0.6,7.9,3,10.1,5.1
	c17.5,16.7,18.9,33.4-1.5,49.9c-8.4,6.8-17,13.5-19.8,21.3c-3.3,9,0.3,17.3,14.5,24.5c12.7,6.4,22.3,13.6,27.5,21.8
	c0.7,1.1,0.5,3,4.3,2.8c3.3-0.2,3.4-1.9,3.9-3.2c2.1-5-0.2-10-3.1-14.8c-4-6.4-7-13.4-9-20.8c-1.5-5.9,1.9-10.9,10.5-15.4
	c5-2.6,10.3-5,15.7-7.4s9.9-5.1,10.9-8.6c0.4-1.4,1.5-3.1,5.8-2.8c3.8,0.3,2.6,2.1,2.6,3.3c0,5.6-0.1,11.3-3.4,16.8
	c-1.8,3-1.1,6.1,0,9.2c1.3,3.7,6.2,5.3,15,5.1c13.3-0.3,24.8-5.2,26.6-11.2c1-3.3-0.4-6.4-2.8-9.5c-4.9-6.3-10-12.6-15.1-18.9
	c-12.8-15.6-15-31.1,0.7-46.8c7.3-7.3,14.3-14.6,22.9-21.7c13.3-11,20.9-22.6,21.3-35c0.3-2.4-0.2-4.8-1.4-6.9
	c-0.9-1.5-0.4-3.1,3.1-3.6s4.3,1.3,5.8,2.4c20.4,14.7,24.1,30.4,17,47.1c-5.3,12.4-4.8,25,5.2,37.2c1.9,2.2,5,4.1,9.7,5.4
	c6,1.7,10.8,1.1,14-1.6c2.5-2.2,2.8-4.5,1.3-6.8c-2-3.4-4.4-6.6-7-9.5c-10-10.5-3.7-21,0.8-31.3c1.6-3.7,7.8-6.6,13.5-9.4
	c1.3-0.7,2.9-1.6,5.2-1s1.6,1.5,0.7,2.4c-11,10.7-4.7,20.5,8.4,30c6.4,4.6,13.2,9.1,19.6,13.8c13.2,9.7,19.1,20.1,15.5,31.3
	c-1.9,5.7-7.2,10.8-16.7,15c-8.9,3.9-16.9,9.3-23.7,16.2c-3.1,3-3.8,6.2-1.5,9.4c2,2.8,6,4.7,13.2,5s12.1-1.4,14.5-4.1
	c2.6-3,4.4-6.1,6.9-9.1c4.6-5.4,12.6-9.1,26.7-10.1c12-0.9,18-4.7,21.7-9.3c2.9-3.7,3.6-7.5,4.5-11.3c0.2-0.8,0.5-1.9,3.2-2
	c2.2-0.1,3.1,0.7,3.2,1.5c1.1,9.4,4.4,19-4.3,28.1c-3.2,3.3-6.8,6.1-10.8,8.3c-11.3,6.3-12.4,13.1-5.4,20.3
	c9.5,9.8,20.2,19.4,30.8,29c23.1,21.1,37.7,43.1,38.1,66.6c0.2,11.6-4.4,23-11.6,34.1c-2.7,4.2-6.4,7.7-10.8,10.1
	c-17.2,9.6-36.3,18.4-61.7,24.2c0.2-1.9,2.7-3.4,4.7-4.9c11.2-9.1,20.3-18.4,27-28.3c9.9-14.6,11.4-29.4,7.8-44.3
	c-2.3-9.6-14.4-17.3-27.4-24.6c-18.1-10.1-31.3-20.8-28.4-34.1c0.2-0.9,1.3-2.4-1.5-2.7c-3.1-0.4-4.4,1-5.7,2
	c-12.7,9.3-14.3,19.4-11.7,29.7c1.7,6.5,10.1,12,15.4,17.9c10.3,11.5,11,22.3-9.4,32.2c-6.9,3.2-13,8.1-17.7,14.1
	c-1.1,1.4-0.8,4.2-5.1,3.8c-4.1-0.4-4-3.1-3.7-5c0.1-0.4,0.3-0.8,0.5-1.1c3.8-7.7,8.2-15.4,11.3-23.2c2.3-5.8,1.4-11.4-7.5-16.4
	c-7-4-17.3-7.3-17.4-13c0-0.6-1.3-1.2-3-1.2c-2.2,0-3.3,0.6-3.6,1.4c-0.2,0.9-0.3,1.8-0.3,2.7c-1.2,5.8,2.5,11.4,1.9,17.2
	c-0.5,5.6-8.2,7.5-19.8,5c-8.4-1.9-14.2-7.7-11.8-11.8c2.9-5.1,7.4-10,12.1-14.8c7.2-7.3,12.3-14.9,14.2-22.8
	c2-8.7-4.6-16.8-12-24.5c-12.4-13.1-25.4-26-19.2-40.6c0.3-0.7-0.5-1.3-2-1.5c-1.7-0.4-3.4,0.1-4.7,1.3c-3.8,3.2-8.1,6.3-11.1,9.6
	c-5.5,5.9-8.5,12.1-6.4,18.4c3.2,9.7,1.9,19.4-2.7,28.9c-1.3,2.8-3.9,5.7-9.6,7.6c-2.5,0.8-5.3,1.9-8.9,1.1c-3.3-0.7-4.2-2-4.3-3.5
	c-0.3-2.5,1.2-4.9,3.9-7c10.3-8.3,10.4-17.1,7.2-26.1c-1.1-2.9-5-5.2-8.5-7.5c-1.2-1-2.7-1.3-4.2-1c-2.1,0.4-1.4,1.2-0.7,2
	c4.9,5.1,2.4,10.1-1.9,14.9c-6.3,7-18.8,12.4-27.6,18.8c-7.8,5.6-11.6,11.7-13.1,18.1c-1.8,7.7,6.7,13.7,15.8,19.8
	c7.7,5.2,15,10.9,9.5,17.6c-1.9,2.2-5.3,3.6-11.3,3.6c-6.5,0-8.7-2-10.1-4.1c-1.2-1.9-2.2-3.9-3-6c-2.1-5.2-8.3-8.5-20.7-9.9
	c-7.1-0.8-10.9-3.2-12.7-6.3c-1.8-3.3-1.7-6.6-1.8-9.9c0-0.8-0.5-1.7-2.7-1.7c-1.7,0-2.2,0.7-2.5,1.4c-3.8,9.9-7.7,19.7,5.4,29.1
	c8,5.7,6.6,11.4,0.1,17.2C643.4,694.8,617.7,711.9,604.2,731.4z M864.8,593.4c0.8-6.4-5.6-11.7-12.2-17c-0.9-0.8-1.7-1.9-4.3-1.4
	c-2.4,0.4-1.7,1.6-1.1,2.4c3.6,4.7,0.3,8.9-5.2,12.8c-11.8,8.4-9.1,16.6,1.6,24.7c1.1,0.8,1.6,2.3,4.7,1.8c3.5-0.5,1.5-1.7,0.8-2.6
	c-3.3-4.2-0.8-7.6,6.7-10.7C862.3,600.7,865.8,597.3,864.8,593.4L864.8,593.4z M765.9,529.2c-1.3,3.5,2.2,7,5.1,10.5
	c0.6,1.2,1.9,1.8,3.2,1.6c2.3,0,2.4-0.9,2.6-1.7c0.5-2.5,2.3-4.8,5.7-6.8c11-6.3,6.8-12.6-0.2-18.8c-2.8-2.5-6-2-7.7,0.2
	C770.8,519,765.1,523.6,765.9,529.2L765.9,529.2z"/>
<path class="st4" d="M818.7,312.3c0.4,9.1,6.5,17.1,15.7,24.5c7,5.6,15.6,10.9,13.6,18.5c-0.2,1,0.7,2,2.7,2.2
	c1.5,0.3,3.1-0.2,4.2-1.4c0.7-0.9,1.7-1.8,1.9-2.7c1.9-11.7,11-22.6,14.7-34.1c2.7-8.3,0.3-16.2-7.3-23.5
	c-7.2-7-12.7-14.3-15.3-22.2c-0.5-1.9-1.7-3.5-3.3-4.5c-1.4-0.9-3-1.2-4.7-0.9c-0.9,0.3-1.6,1.1-1.7,2c-0.2,9.7-9.1,18.1-14.6,27
	C821.4,302.1,818.5,307,818.7,312.3z"/>
<path class="st4" d="M1226.5,536c-0.3-8.6-3.2-17-8.5-23.9c-1.3-1.8-2.8-3.4-4.5-4.8c-2-1.6-4.7-3.7-8.3-3c-3.8,0.7-1.6,3.2-1.2,4.8
	c3,11.5-0.6,22.6-11.3,32.4c-11,10-15.6,21-19.7,32.2c-3.4,9.1,3.3,16.5,13.8,23.2c1.4,0.9,2.9,1.9,5.2,1.6c2.6-0.3,4.2-1.6,4.1-2.9
	c-1-12.3,11-22,20.8-32.2C1224.5,555.5,1226.6,546.8,1226.5,536z"/>
<path class="st4" d="M1043,325.3c-0.4-3,1.2-6,2.2-9c0.4-1.1,0.5-2.4-2-2.9c-1.8-0.5-3.7,0.1-4.9,1.5c-10.9,10.6-19.7,21.5-19.4,34
	c0.2,6.5,4.8,12.1,13.5,16.5c11,5.5,13.8,11.9,8.8,19.4c-1.1,1.7-2.9,3.8,1.2,4.7s4.4-1.6,5.8-2.9c1.9-1.8,3.3-3.8,5.2-5.7
	c13.8-13.1,12.2-26-1.4-38.8C1046.5,336.8,1042.4,331.4,1043,325.3z"/>
<path class="st4" d="M815.5,386.3c-1.3-8.1-7.9-17.3-15.4-26.3c-1-1.3-2.4-2.1-4-2.4c-2.9-0.2-3.2,1.6-4.2,2.7
	c-11.4,12.3-14.4,24.4,3.1,36c3.9,2.6,4.4,6,4.4,9.3c0,1.5,0.5,3.2,3.6,3.5c3.4,0.3,4.1-1.5,4.9-2.9
	C811,400.2,815.5,394.5,815.5,386.3z"/>
<polygon class="st4" points="1305.5,533.1 1333.5,551.6 1319.5,574.6 1265.5,541.8 "/>
<polygon class="st4" points="1759,478.9 1793,496.8 1776,512.5 1743.1,496.8 "/>
<path class="st4" d="M732.1,620l67-49.6l32.9-41.1l47.5-29l40.4-21.5l18-17.9l-18-27.7l18-19.5l25-6l24,71.1l54.9,34.8
	c0,0,32,33.7,48,40.2s81.9,56.5,81.9,56.5l-196,60.8H783L732.1,620z"/>
<polygon class="st5" points="112.1,649.6 62.2,686.5 24.2,687.1 24.2,786 1966.3,786 1966.3,663.6 1966.3,638.3 1901.3,638.3 
	1864.4,692.9 1892.3,667.9 1864.4,668.5 1808.4,686.5 1818.4,693.5 1708.3,697.5 1700.5,680.1 1640.6,680.7 1594.6,682.5 
	1550.7,674.9 1538.7,663.6 1527.7,663 1520.7,649.6 1499.7,631.3 1485.8,626.6 1442.8,633 1430.8,660.7 1421.8,663.6 1444.8,646.4 
	1410.8,638.8 1377.6,646.4 1368.9,663.6 1352.9,671.4 1342.9,677.2 1330.9,683.6 1254,682.5 1133.4,701.4 881.4,680.7 883.3,649.6 
	810.4,638.8 743.5,634.2 725.5,669.7 756.5,663 732.5,673.5 663.6,686.5 671.6,694.1 647.6,701.4 493.7,700.2 422.1,686.7 
	527.7,706.3 595.6,710.4 591.7,691.8 557.7,680.1 431.8,681.3 401.8,666.2 385.9,660.7 363.9,652.2 354.9,645.5 381.9,629.5 
	327.9,629.5 245,649.6 232,666.2 228,680.7 158.1,682.5 "/>
<path class="st5" d="M909.1,752.9c-8.9-1.7-16.6-3.8-22.2-6.3c-27.1-12.7-37.6-26.2-25-41c3-3.5,9.8-6.5,15-9.8
	c1.7-1.1,3.8-1.6,5.9-1.3c2.8,0.3,2.8,1.3,2.2,2.1c-2.5,3.1-1.3,6.2-1.3,9.4s3.7,5.8,9.6,8.3c6.7,2.8,17.1,2.6,23-0.4
	c7.9-4,7.4-8.4,4.5-12.7c-3.5-5.1-12.7-9.6-21.7-14c-23.5-11.5-35.3-24-41.2-37c-3.7-8.1,0.5-16.4,6.8-24.4c2.3-3,7.7-5.7,14.2-8.1
	c11.5-4.3,23-8.7,34.8-13c18-6.5,26.6-13.9,26.5-22.2c0-1.5-2.3-3.9,2.6-4.3c5.7-0.4,7.9,2,10.1,3.5c17.5,11.4,18.9,22.7-1.5,33.9
	c-8.4,4.6-17,9.2-19.8,14.5c-3.3,6.2,0.3,11.8,14.5,16.7c12.7,4.4,22.3,9.3,27.5,14.8c0.7,0.8,0.5,2,4.3,1.9
	c3.3-0.1,3.4-1.3,3.9-2.1c2.1-3.4-0.2-6.8-3.1-10.1c-3.8-4.1-6.9-8.9-9-14.1c-1.5-4,1.9-7.4,10.5-10.5c5-1.7,10.3-3.4,15.7-5
	s9.9-3.5,10.9-5.9c0.4-1,1.5-2.1,5.8-1.9c3.8,0.2,2.6,1.4,2.6,2.2c0,3.8-0.1,7.7-3.4,11.4c-1.8,2.1-1.1,4.2,0,6.2
	c1.3,2.5,6.2,3.6,15,3.5c13.3-0.2,24.8-3.6,26.6-7.6c1-2.2-0.4-4.4-2.8-6.4c-4.9-4.3-10-8.6-15.1-12.8c-12.8-10.6-15-21.2,0.7-31.8
	c7.3-5,14.3-10,22.9-14.8c13.3-7.5,20.9-15.4,21.3-23.8c0.2-1.7-0.3-3.4-1.4-4.7c-0.9-1-0.4-2.1,3.1-2.5s4.3,0.9,5.8,1.6
	c20.4,10,24.1,20.7,17,32c-5.3,8.5-4.8,17,5.2,25.3c1.9,1.5,5,2.8,9.7,3.7c6,1.1,10.8,0.7,14-1.1c2.5-1.5,2.8-3,1.3-4.6
	c-2.1-2.4-4.5-4.5-7-6.5c-10-7.2-3.7-14.2,0.8-21.3c1.6-2.5,7.8-4.5,13.5-6.4c1.6-0.7,3.4-0.9,5.2-0.7c2.2,0.4,1.6,1,0.7,1.6
	c-11,7.3-4.7,14,8.4,20.4c6.4,3.2,13.2,6.2,19.6,9.4c13.2,6.6,19.1,13.7,15.4,21.3c-1.9,3.9-7.2,7.4-16.7,10.2
	c-8.4,2.4-16.4,6.1-23.7,11c-3.1,2.1-3.8,4.2-1.6,6.4c2,1.9,6,3.2,13.2,3.4s12.1-0.9,14.5-2.8c2.6-2,4.4-4.2,6.9-6.2
	c4.6-3.7,12.6-6.2,26.7-6.9c12-0.6,18-3.2,21.7-6.3c2.9-2.5,3.6-5.1,4.5-7.7c0.2-0.6,0.5-1.3,3.2-1.4c2.2-0.1,3.1,0.5,3.2,1
	c1.1,6.4,4.4,12.9-4.3,19.1c-3.3,2.4-7,4.3-10.8,5.7c-11.3,4.3-12.4,8.9-5.4,13.8c9.5,6.7,20.2,13.2,30.8,19.7
	c23.1,14.3,37.7,29.3,38.1,45.3c0.2,7.9-4.4,15.6-11.6,23.2c-3,3.1-6.7,5.4-10.8,6.8c-19.9,7.7-40.6,13.2-61.7,16.5
	c0.2-1.3,2.7-2.3,4.7-3.4c11.2-6.2,20.3-12.5,27-19.3c9.9-9.9,11.4-20,7.8-30.2c-2.3-6.5-14.4-11.8-27.4-16.7
	c-18.1-6.9-31.3-14.2-28.4-23.2c0.2-0.6,1.3-1.6-1.5-1.8c-2-0.2-4,0.2-5.7,1.3c-12.7,6.3-14.3,13.2-11.7,20.2
	c1.7,4.4,10.1,8.1,15.4,12.2c10.3,7.8,11,15.2-9.4,21.9c-8.2,2.7-13.8,6.1-17.7,9.6c-1.1,1-0.8,2.9-5.1,2.6c-4.1-0.3-4-2.1-3.7-3.4
	c0.1-0.3,0.3-0.5,0.5-0.8c3.8-5.2,8.2-10.5,11.3-15.8c2.3-3.9,1.4-7.7-7.5-11.2c-7-2.7-17.3-4.9-17.4-8.8c0-0.4-1.3-0.8-3-0.8
	c-2.2,0-3.3,0.4-3.6,1s-0.1,1.2-0.3,1.8c-1.2,3.9,2.4,7.8,1.9,11.7s-8.2,5.1-19.8,3.4c-8.4-1.3-14.2-5.2-11.8-8
	c2.9-3.5,7.4-6.8,12.1-10.1c7.2-5,12.3-10.1,14.2-15.5c2-5.9-4.6-11.4-11.9-16.7c-12.4-8.9-25.4-17.7-19.2-27.7c0.3-0.5-0.5-0.9-2-1
	c-1.6-0.3-3.3,0-4.7,0.9c-3.8,2.2-8.1,4.3-11.1,6.6c-5.5,4-8.5,8.2-6.4,12.5c3.2,6.6,1.9,13.2-2.7,19.7c-1.3,1.9-3.9,3.9-9.6,5.2
	c-2.9,0.8-5.9,1.1-8.9,0.8c-3.3-0.5-4.2-1.3-4.3-2.4c-0.3-1.7,1.2-3.3,3.9-4.8c10.3-5.7,10.4-11.6,7.2-17.8c-1.1-2-5-3.5-8.4-5.1
	c-1.3-0.7-2.7-0.9-4.2-0.7c-2.1,0.3-1.4,0.8-0.7,1.3c4.9,3.5,2.4,6.8-1.9,10.1c-6.3,4.8-18.8,8.5-27.6,12.8
	c-7.8,3.8-11.6,8-13.1,12.3c-1.8,5.2,6.7,9.3,15.8,13.5c7.7,3.6,15,7.4,9.5,12c-1.9,1.5-5.3,2.5-11.3,2.4c-6.5,0-8.7-1.3-10.1-2.8
	c-1.1-1.2-2.1-2.6-3-4.1c-2.1-3.5-8.3-5.8-20.7-6.7c-7.1-0.5-10.9-2.2-12.7-4.3s-1.7-4.5-1.8-6.7c0-0.5-0.5-1.1-2.7-1.1
	c-1.7,0-2.2,0.5-2.5,1c-3.8,6.7-7.7,13.4,5.4,19.8c8,3.9,6.6,7.8,0.1,11.7C948.3,728,922.7,739.6,909.1,752.9z M1169.8,659
	c0.8-4.3-5.6-8-12.2-11.6c-1.2-0.9-2.8-1.3-4.3-1c-2.4,0.3-1.7,1.1-1.1,1.6c3.6,3.2,0.3,6-5.2,8.7c-11.8,5.7-9.1,11.3,1.6,16.8
	c1.1,0.5,1.6,1.5,4.7,1.3c3.5-0.3,1.5-1.1,0.8-1.8c-3.3-2.9-0.8-5.2,6.7-7.3C1167.2,664,1170.7,661.7,1169.8,659z M1070.9,615.4
	c-1.3,2.4,2.2,4.7,5.1,7.1c0.6,0.5,0.9,1.1,3.2,1.1s2.4-0.6,2.6-1.2c0.5-1.7,2.3-3.3,5.7-4.6c11-4.3,6.8-8.5-0.2-12.8
	c-2.3-1.6-5.4-1.5-7.7,0.1C1075.7,608.4,1070,611.6,1070.9,615.4L1070.9,615.4z"/>
<path class="st5" d="M591.4,758.1c-8.9-1.3-16.6-3-22.2-5c-27.1-10-37.6-20.7-25-32.3c3-2.8,9.8-5.1,15-7.7c1.8-0.9,3.9-1.3,5.9-1
	c2.8,0.2,2.8,1,2.2,1.6c-2.5,2.5-1.3,4.9-1.3,7.4s3.7,4.6,9.6,6.5c6.7,2.2,17.1,2,23-0.3c7.9-3.2,7.4-6.6,4.5-10
	c-3.5-4-12.7-7.6-21.7-11c-23.5-9-35.3-18.9-41.2-29.2c-3.7-6.4,0.5-12.9,6.8-19.2c2.3-2.3,7.7-4.5,14.2-6.4
	c11.5-3.4,23-6.9,34.8-10.2c18-5.1,26.6-11,26.5-17.5c0-1.2-2.3-3.1,2.6-3.4c5.7-0.3,7.9,1.6,10.1,2.7c17.5,9,18.9,17.9-1.5,26.7
	c-8.4,3.6-17,7.3-19.8,11.4c-3.3,4.8,0.3,9.3,14.5,13.1c12.7,3.5,22.3,7.3,27.5,11.7c0.7,0.6,0.5,1.6,4.3,1.5c3.3-0.1,3.4-1,3.9-1.7
	c2.1-2.7-0.2-5.3-3.1-7.9c-3.7-3.1-6.7-6.9-8.9-11.1c-1.5-3.1,1.9-5.8,10.5-8.2c5-1.4,10.3-2.7,15.7-4s9.9-2.8,10.9-4.6
	c0.4-0.8,1.5-1.7,5.8-1.5c3.8,0.2,2.6,1.1,2.6,1.8c0,3-0.1,6-3.4,9c-1.8,1.6-1.1,3.3,0,4.9c1.3,2,6.2,2.8,15,2.7
	c13.3-0.2,24.8-2.8,26.6-6c1-1.8-0.4-3.4-2.8-5.1c-4.9-3.4-10-6.8-15.1-10.1c-12.8-8.4-15-16.7,0.7-25.1c7.3-3.9,14.3-7.8,22.9-11.6
	c13.3-5.9,20.9-12.1,21.3-18.7c0.2-1.4-0.3-2.8-1.4-3.7c-0.9-0.8-0.4-1.7,3.1-1.9s4.3,0.7,5.8,1.3c20.4,7.9,24.1,16.3,17,25.2
	c-5.3,6.7-4.8,13.4,5.2,19.9c1.9,1.2,5,2.2,9.7,2.9c6,0.9,10.8,0.6,14-0.9c2.5-1.2,2.8-2.4,1.3-3.6c-2.2-1.9-4.5-3.6-7-5.1
	c-10-5.6-3.7-11.2,0.8-16.8c1.6-2,7.8-3.5,13.5-5c1.7-0.6,3.4-0.7,5.2-0.5c2.2,0.3,1.6,0.8,0.7,1.3c-11,5.7-4.7,11,8.4,16
	c6.4,2.5,13.2,4.9,19.6,7.4c13.2,5.2,19.1,10.8,15.5,16.8c-1.9,3.1-7.2,5.8-16.7,8c-8.3,1.8-16.2,4.7-23.7,8.7
	c-3.1,1.6-3.8,3.3-1.5,5c2,1.5,6,2.5,13.2,2.7s12.1-0.7,14.5-2.2c2.6-1.6,4.4-3.3,6.9-4.9c4.5-2.8,12.5-4.8,26.7-5.4
	c12-0.5,18-2.5,21.7-5c2.9-2,3.6-4,4.5-6.1c0.2-0.5,0.5-1,3.2-1.1c2.2,0,3.1,0.4,3.2,0.8c1.1,5.1,4.4,10.2-4.3,15.1
	c-3.4,1.9-7,3.4-10.8,4.5c-11.3,3.4-12.4,7-5.4,10.9c9.5,5.3,20.2,10.4,30.8,15.5c23.1,11.3,37.7,23.1,38.1,35.7
	c0.2,6.2-4.4,12.3-11.6,18.3c-3.2,2.5-6.9,4.4-10.8,5.4c-20.1,6.1-40.8,10.5-61.7,13c0.2-1,2.7-1.8,4.7-2.6
	c11.2-4.9,20.3-9.9,27-15.2c9.9-7.8,11.4-15.7,7.8-23.8c-2.3-5.1-14.4-9.2-27.4-13.2c-18.1-5.4-31.3-11.1-28.4-18.2
	c0.2-0.5,1.3-1.3-1.5-1.5c-2-0.2-4,0.1-5.7,1c-12.7,5-14.3,10.4-11.7,15.9c1.7,3.5,10.1,6.4,15.4,9.6c10.3,6.1,11,11.9-9.4,17.3
	c-8.2,2.2-13.8,4.8-17.7,7.6c-1.1,0.8-0.8,2.3-5.1,2.1c-4.1-0.2-4-1.7-3.7-2.7c0.1-0.2,0.3-0.4,0.5-0.6c3.8-4.1,8.2-8.2,11.3-12.4
	c2.3-3.1,1.4-6.1-7.5-8.8c-7-2.1-17.3-3.9-17.4-7c0-0.3-1.3-0.6-3-0.7c-2.2,0-3.3,0.3-3.6,0.8s-0.1,1-0.3,1.4
	c-1.2,3.1,2.5,6.1,1.9,9.2s-8.2,4-19.8,2.7c-8.4-1-14.2-4.1-11.8-6.3c2.9-2.7,7.4-5.4,12.1-7.9c7.2-3.9,12.3-8,14.2-12.2
	c2-4.7-4.6-9-12-13.2c-12.4-7-25.4-13.9-19.2-21.8c0.3-0.4-0.5-0.7-2-0.8c-1.6-0.2-3.2,0-4.7,0.7c-3.8,1.7-8.1,3.4-11.1,5.2
	c-5.5,3.2-8.5,6.5-6.4,9.8c3.2,5.2,1.9,10.4-2.7,15.5c-1.3,1.5-3.9,3.1-9.6,4.1c-2.9,0.7-5.9,0.9-8.9,0.6c-3.3-0.4-4.2-1.1-4.3-1.9
	c-0.3-1.3,1.2-2.6,3.9-3.8c10.3-4.5,10.4-9.2,7.2-14c-1.1-1.6-5-2.8-8.5-4c-1.3-0.6-2.8-0.7-4.2-0.5c-2.1,0.2-1.4,0.7-0.7,1.1
	c4.9,2.7,2.4,5.4-1.9,8c-6.3,3.8-18.8,6.7-27.6,10.1c-7.8,3-11.6,6.3-13.1,9.7c-1.8,4.1,6.7,7.3,15.8,10.6c7.7,2.8,15,5.8,9.5,9.5
	c-1.9,1.2-5.3,1.9-11.3,1.9c-6.5,0-8.7-1.1-10.1-2.2c-1.1-0.9-2.1-2-3-3.2c-2.1-2.8-8.3-4.6-20.7-5.3c-7.1-0.4-10.9-1.7-12.7-3.4
	s-1.7-3.5-1.8-5.3c0-0.4-0.5-0.9-2.7-0.9c-1.7,0-2.2,0.4-2.5,0.8c-3.8,5.3-7.7,10.6,5.4,15.6c8,3,6.6,6.1,0.1,9.2
	C630.7,738.5,605,747.7,591.4,758.1z M852.1,684.2c0.8-3.4-5.6-6.3-12.2-9.1c-1.3-0.8-2.9-1-4.3-0.8c-2.4,0.2-1.7,0.9-1.1,1.3
	c3.6,2.5,0.3,4.8-5.2,6.8c-11.8,4.5-9.1,8.9,1.6,13.2c1.4,0.9,3.1,1.3,4.7,1c3.5-0.2,1.5-0.9,0.8-1.4c-3.3-2.3-0.8-4.1,6.7-5.7
	C849.5,688.1,853.1,686.3,852.1,684.2L852.1,684.2z M753.2,649.8c-1.3,1.9,2.2,3.7,5.1,5.6c0.6,0.4,1,0.9,3.2,0.8s2.4-0.5,2.6-0.9
	c0.5-1.3,2.3-2.6,5.7-3.6c11-3.4,6.8-6.7-0.2-10.1c-2.4-1.2-5.3-1.2-7.7,0.1C758.1,644.3,752.3,646.8,753.2,649.8L753.2,649.8z"/>
<path class="st5" d="M460.1,718.9c-6.5-3.1-7.8-6.2,0.1-9.2c13.1-5,9.2-10.3,5.4-15.6c-0.3-0.3-0.8-0.8-2.5-0.8
	c-2.2,0-2.6,0.5-2.7,0.9c-0.2,1.8,0,3.5-1.8,5.3s-5.5,3-12.6,3.4c-12.3,0.7-18.6,2.5-20.7,5.3c-0.8,1.2-1.8,2.3-3,3.2
	c-1.4,1.2-3.6,2.2-10.1,2.2c-6,0-9.5-0.7-11.3-1.9c-5.5-3.6,1.8-6.6,9.5-9.5c9.1-3.3,17.6-6.5,15.8-10.6c-1.5-3.5-5.3-6.7-13.2-9.7
	c-8.9-3.4-21.3-6.3-27.6-10.1c-4.3-2.6-6.8-5.3-1.9-8c0.7-0.4,1.4-0.8-0.7-1.1c-1.4-0.2-2.9,0-4.2,0.5c-3.5,1.3-7.4,2.5-8.5,4
	c-3.2,4.8-3.2,9.5,7.2,14c2.7,1.2,4.2,2.4,3.9,3.8c-0.2,0.8-1.1,1.5-4.3,1.9c-3,0.3-6,0.1-8.9-0.6c-5.8-1-8.3-2.6-9.6-4.1
	c-4.5-5.1-5.8-10.3-2.7-15.5c2-3.4-1-6.7-6.4-9.8c-3.1-1.8-7.4-3.5-11.1-5.2c-1.5-0.7-3.1-0.9-4.7-0.7c-1.5,0.1-2.3,0.4-2,0.8
	c6.2,7.8-6.8,14.8-19.2,21.8c-7.3,4.2-13.9,8.5-12,13.2c1.8,4.3,7,8.3,14.1,12.2c4.7,2.6,9.2,5.2,12.1,7.9c2.3,2.2-3.4,5.3-11.8,6.3
	c-11.7,1.4-19.3,0.3-19.8-2.7s3.1-6.1,1.9-9.2c-0.2-0.5,0-1-0.3-1.4s-1.4-0.8-3.6-0.8c-1.7,0-3,0.3-3,0.7c-0.1,3.1-10.4,4.8-17.4,7
	c-8.9,2.7-9.8,5.7-7.5,8.8c3.1,4.2,7.5,8.3,11.3,12.4c0.2,0.2,0.5,0.4,0.5,0.6c0.3,1,0.4,2.5-3.7,2.7c-4.3,0.2-4-1.3-5.1-2.1
	c-3.9-2.8-9.5-5.4-17.7-7.6c-20.3-5.3-19.6-11.1-9.4-17.3c5.3-3.2,13.8-6.1,15.4-9.6c2.7-5.5,1-11-11.7-15.9c-1.8-0.9-3.8-1.2-5.7-1
	c-2.8,0.2-1.7,1-1.5,1.5c2.9,7.1-10.2,12.8-28.4,18.2c-13,3.9-25.1,8-27.4,13.2c-3.6,8-2.1,15.9,7.8,23.8c6.7,5.3,15.8,10.3,27,15.2
	c1.9,0.8,4.5,1.6,4.7,2.6c-20.9-2.5-41.5-6.9-61.7-13c-3.9-1-7.6-2.9-10.8-5.4c-7.2-6-11.8-12-11.6-18.3c0.4-12.6,15-24.4,38.1-35.7
	c10.6-5.2,21.3-10.3,30.8-15.5c7-3.9,5.9-7.5-5.4-10.9c-3.8-1.1-7.4-2.6-10.8-4.5c-8.7-4.9-5.5-10-4.4-15.1c0.1-0.4,1-0.9,3.2-0.8
	c2.7,0.1,3,0.6,3.2,1.1c0.9,2,1.7,4.1,4.5,6.1c3.6,2.5,9.7,4.5,21.7,5c14.1,0.5,22.1,2.5,26.7,5.4c2.6,1.6,4.3,3.3,6.9,4.9
	c2.4,1.5,7.1,2.4,14.5,2.2s11.2-1.2,13.2-2.7c2.3-1.7,1.6-3.4-1.5-5c-7.5-3.9-15.5-6.8-23.7-8.7c-9.5-2.2-14.8-5-16.7-8
	c-3.6-6,2.2-11.6,15.4-16.8c6.4-2.5,13.2-4.9,19.6-7.4c13.1-5.1,19.4-10.3,8.4-16c-0.9-0.5-1.5-1,0.7-1.3c1.8-0.2,3.5,0,5.2,0.5
	c5.7,1.5,11.9,3.1,13.5,5c4.5,5.6,10.8,11.2,0.8,16.8c-2.5,1.5-4.8,3.2-7,5.1c-1.5,1.2-1.2,2.5,1.3,3.6c3.2,1.5,8,1.8,14,0.9
	c4.7-0.7,7.8-1.7,9.7-2.9c10-6.5,10.5-13.3,5.2-19.9c-7.1-8.9-3.4-17.3,17-25.2c1.4-0.6,2.1-1.5,5.8-1.3s4,1.2,3.1,1.9
	c-1.1,0.9-1.6,2.3-1.4,3.7c0.4,6.7,8,12.9,21.3,18.7c8.6,3.8,15.6,7.7,22.9,11.6c15.7,8.4,13.4,16.7,0.7,25.1
	c-5.1,3.4-10.2,6.7-15.1,10.1c-2.4,1.6-3.8,3.3-2.8,5.1c1.8,3.2,13.3,5.8,26.6,6c8.8,0.1,13.7-0.7,15-2.7c1.1-1.6,1.8-3.3,0-4.9
	c-3.3-3-3.4-6-3.4-9c0-0.7-1.2-1.6,2.6-1.8c4.3-0.2,5.4,0.7,5.8,1.5c1,1.9,5.4,3.3,10.9,4.6s10.7,2.6,15.7,4
	c8.6,2.4,12,5.1,10.5,8.2c-2.2,4.3-5.3,8-9,11.1c-2.9,2.6-5.2,5.2-3.1,7.9c0.5,0.7,0.6,1.6,3.9,1.7c3.9,0.1,3.6-0.9,4.3-1.5
	c5.2-4.4,14.8-8.2,27.5-11.7c14.2-3.8,17.8-8.3,14.5-13.1c-2.8-4.2-11.4-7.8-19.8-11.4c-20.5-8.8-19.1-17.8-1.5-26.7
	c2.2-1.1,4.4-3,10.1-2.7c5,0.3,2.7,2.2,2.6,3.4c-0.1,6.6,8.5,12.4,26.5,17.5c11.8,3.4,23.3,6.8,34.8,10.2c6.5,1.9,11.8,4,14.2,6.4
	c6.3,6.3,10.5,12.8,6.8,19.2c-5.9,10.2-17.8,20.1-41.2,29.2c-9,3.5-18.2,7-21.7,11c-3,3.4-3.4,6.8,4.5,10c5.9,2.4,16.3,2.5,23,0.3
	c6-2,9.7-4.1,9.6-6.5s1.1-4.9-1.3-7.4c-0.6-0.6-0.6-1.4,2.2-1.6c2-0.3,4.1,0.1,5.9,1c5.1,2.5,12,4.9,15,7.7
	c12.6,11.6,2.1,22.3-25,32.3c-5.5,2-13.3,3.7-22.2,5C506.2,737.8,480.5,728.6,460.1,718.9z M268.1,679.7c7.4,1.6,10,3.5,6.7,5.7
	c-0.7,0.5-2.7,1.1,0.8,1.4c1.6,0.3,3.3-0.1,4.7-1c10.7-4.3,13.5-8.7,1.6-13.2c-5.5-2.1-8.8-4.3-5.1-6.8c0.6-0.4,1.3-1-1.1-1.3
	c-1.5-0.3-3,0-4.4,0.8c-6.6,2.8-13.1,5.7-12.2,9.1C258.1,676.4,261.6,678.2,268.1,679.7L268.1,679.7z M349.3,631.9
	c-2.4-1.3-5.3-1.3-7.7-0.1c-7,3.3-11.1,6.7-0.2,10.1c3.4,1,5.2,2.3,5.7,3.6c0.1,0.4,0.2,0.9,2.6,0.9s2.6-0.5,3.2-0.8
	c2.9-1.9,6.4-3.7,5.1-5.6C358.9,636.9,353.1,634.5,349.3,631.9L349.3,631.9z"/>
<path class="st5" d="M320.1,726.8c-1.8-0.9-3.9-1.3-5.9-1c-2.8,0.2-2.8,1-2.1,1.6c2.5,2.5,1.3,4.9,1.4,7.4s-3.7,4.6-9.6,6.5
	c-6.7,2.2-17.1,2-23-0.3c-7.9-3.2-7.4-6.6-4.5-10c3.5-4,12.7-7.6,21.7-11c23.5-9,35.4-18.9,41.2-29.2c3.7-6.4-0.5-12.9-6.8-19.2
	c-2.4-2.3-7.7-4.5-14.2-6.4c-11.5-3.4-23-6.9-34.8-10.2c-18-5.1-26.6-11-26.5-17.5c0-1.2,2.3-3.1-2.6-3.4c-5.7-0.3-7.9,1.6-10.1,2.7
	c-17.5,9-18.9,17.9,1.6,26.7c8.4,3.6,17,7.3,19.8,11.4c3.3,4.8-0.3,9.3-14.5,13.1c-12.7,3.5-22.3,7.3-27.5,11.7
	c-0.7,0.6-0.4,1.6-4.3,1.5c-3.3-0.1-3.4-1-3.9-1.7c-2.1-2.7,0.2-5.3,3.1-7.9c3.7-3.1,6.7-6.9,8.9-11.1c1.5-3.1-1.9-5.8-10.5-8.2
	c-5-1.4-10.3-2.7-15.7-4s-9.9-2.7-10.9-4.6c-0.4-0.8-1.5-1.7-5.8-1.5c-3.8,0.2-2.6,1.1-2.6,1.8c0,3,0.1,6,3.4,9
	c1.8,1.6,1.1,3.3,0,4.9c-1.3,2-6.2,2.8-15,2.7c-13.3-0.2-24.8-2.8-26.6-6c-1-1.8,0.4-3.4,2.8-5.1c4.9-3.4,10-6.8,15.1-10.1
	c12.8-8.4,15-16.7-0.7-25.1c-7.3-3.9-14.3-7.8-22.9-11.6c-13.3-5.9-20.9-12.1-21.3-18.7c-0.2-1.4,0.3-2.8,1.4-3.7
	c0.9-0.8,0.4-1.7-3.1-1.9s-4.3,0.7-5.8,1.3c-20.3,7.9-24,16.2-17,25.2c5.3,6.7,4.8,13.4-5.2,19.9c-1.9,1.2-5,2.2-9.7,2.9
	c-6,0.9-10.8,0.6-14-0.9c-2.5-1.2-2.8-2.4-1.3-3.6c2.2-1.9,4.5-3.6,7-5.1c10-5.6,3.7-11.2-0.8-16.8c-1.6-2-7.8-3.5-13.5-5
	c-1.7-0.6-3.4-0.7-5.2-0.5c-2.2,0.3-1.6,0.8-0.7,1.3c11,5.7,4.7,11-8.4,16c-6.4,2.5-13.2,4.9-19.6,7.4C7.8,645.7,2,651.2,5.6,657.3
	c1.9,3.1,7.2,5.8,16.7,8c8.3,1.9,16.2,4.8,23.7,8.7c3.1,1.6,3.8,3.3,1.5,5c-2,1.5-6,2.5-13.2,2.7s-12.1-0.7-14.5-2.2
	c-2.6-1.6-4.4-3.3-6.9-4.9s-6.5-3-12-4c4,1.8,6.5,4,6.2,6.2c-1.4,10.4-2.1,20.9-2,31.3c1.1-1.4,1.3-3.3,0.6-5
	c-0.2-0.5-1.3-1.3,1.5-1.5c2-0.2,4,0.1,5.7,1c12.7,5,14.4,10.4,11.7,15.9C23,722,14.6,725,9.3,728.2c-10.3,6.1-11,11.9,9.3,17.3
	c8.2,2.2,13.8,4.8,17.7,7.6c1.1,0.8,0.8,2.3,5.1,2.1c4.1-0.2,4-1.7,3.7-2.7c-0.1-0.2-0.3-0.4-0.5-0.6c-3.8-4.1-8.2-8.2-11.3-12.4
	c-2.3-3.1-1.4-6.1,7.5-8.8c7-2.1,17.3-3.9,17.4-7c0-0.3,1.3-0.6,3-0.7c2.2,0,3.3,0.3,3.6,0.8s0.1,1,0.3,1.4c1.2,3.1-2.5,6.1-1.9,9.2
	s8.2,4,19.8,2.7c8.4-1,14.2-4.1,11.8-6.3c-2.9-2.7-7.4-5.4-12.1-7.9c-7.2-3.9-12.3-8-14.2-12.2c-2-4.7,4.6-9,11.9-13.2
	c12.4-7,25.4-13.9,19.2-21.8c-0.3-0.4,0.5-0.7,2-0.8c1.6-0.2,3.2,0,4.7,0.7c3.8,1.7,8.1,3.4,11.1,5.2c5.5,3.2,8.5,6.5,6.4,9.8
	c-3.2,5.2-1.9,10.4,2.7,15.5c1.4,1.5,3.9,3.1,9.6,4.1c2.9,0.7,5.9,0.9,8.9,0.6c3.3-0.4,4.2-1.1,4.3-1.9c0.3-1.3-1.2-2.6-3.9-3.8
	c-10.3-4.5-10.4-9.2-7.2-14c1.1-1.6,5-2.8,8.4-4c1.3-0.6,2.8-0.7,4.2-0.5c2.1,0.2,1.4,0.7,0.7,1.1c-4.9,2.7-2.4,5.4,1.9,8
	c6.3,3.8,18.8,6.7,27.6,10.1c7.8,3,11.6,6.3,13.1,9.7c1.8,4.1-6.7,7.3-15.8,10.6c-7.7,2.8-15,5.8-9.5,9.5c1.9,1.2,5.3,1.9,11.3,1.9
	c6.5,0,8.6-1.1,10.1-2.2c1.1-0.9,2.1-2,2.9-3.2c2.1-2.8,8.3-4.6,20.7-5.3c7.1-0.4,10.9-1.7,12.6-3.4s1.7-3.5,1.8-5.3
	c0-0.4,0.5-0.9,2.7-0.9c1.7,0,2.2,0.4,2.5,0.8c3.8,5.3,7.7,10.6-5.4,15.6c-8,3-6.6,6.1-0.1,9.2c20.4,9.7,46,18.9,59.6,29.4
	c8.9-1.3,16.6-3,22.1-5c27.1-10,37.6-20.7,25-32.3C332.1,731.8,325.3,729.4,320.1,726.8z M48.5,709.3c-1.4,0.9-3.1,1.3-4.7,1
	c-3.5-0.2-1.5-0.9-0.8-1.4c3.3-2.3,0.8-4.1-6.7-5.7c-6.5-1.4-10-3.2-9-5.3c-0.8-3.4,5.6-6.3,12.2-9.1c1.3-0.8,2.9-1,4.3-0.8
	c2.4,0.2,1.7,0.9,1.1,1.3c-3.6,2.5-0.3,4.8,5.2,6.8C62,700.6,59.2,705,48.5,709.3z M121.1,669.1c-0.6,0.4-0.9,0.9-3.2,0.8
	s-2.4-0.5-2.6-0.9c-0.5-1.3-2.3-2.6-5.7-3.6c-11-3.4-6.8-6.7,0.2-10.1c2.4-1.2,5.3-1.2,7.7,0.1c3.9,2.6,9.6,5,8.8,8.1
	C127.5,665.4,124,667.2,121.1,669.1z"/>
<path class="st5" d="M2036.9,760.2c-1.1,0.5-2,1-2.1,1.6l2.2-0.3C2037,761.1,2036.9,760.7,2036.9,760.2z"/>
<path class="st5" d="M1970.4,692.5c-5-3-5.7-5.9,0-9v-72.4c-1.1-1.3-1.1-3.3,0-4.6v-4.7l-1.1,0.3c-5.7,1.5-11.9,3.1-13.5,5
	c-4.5,5.6-10.8,11.2-0.8,16.8c2.5,1.5,4.8,3.2,7,5.1c1.5,1.2,1.2,2.5-1.3,3.6c-3.2,1.5-8,1.8-14,0.9c-4.7-0.7-7.8-1.7-9.7-2.9
	c-10.1-6.5-10.5-13.3-5.2-19.9c7.1-8.9,3.4-17.3-17-25.2c-1.4-0.6-2.1-1.5-5.8-1.3s-4,1.2-3.1,1.9c1.1,0.9,1.6,2.3,1.4,3.7
	c-0.4,6.7-8,12.9-21.3,18.7c-8.6,3.8-15.6,7.7-22.9,11.6c-15.7,8.4-13.4,16.7-0.7,25.1c5.1,3.4,10.2,6.7,15.1,10.1
	c2.4,1.6,3.8,3.3,2.8,5.1c-1.8,3.2-13.3,5.8-26.6,6c-8.8,0.1-13.7-0.7-15-2.7c-1.1-1.6-1.8-3.3,0-4.9c3.3-3,3.4-6,3.4-9
	c0-0.7,1.2-1.6-2.6-1.8c-4.3-0.2-5.4,0.7-5.8,1.5c-1,1.9-5.4,3.3-10.9,4.6s-10.7,2.6-15.7,4c-8.6,2.4-12,5.1-10.5,8.2
	c2.2,4.3,5.3,8,8.9,11.1c2.9,2.6,5.2,5.2,3.1,7.9c-0.5,0.7-0.6,1.6-3.9,1.7c-3.9,0.1-3.6-0.9-4.3-1.5c-5.2-4.4-14.8-8.2-27.5-11.7
	c-14.2-3.8-17.8-8.3-14.5-13.1c2.8-4.2,11.4-7.8,19.8-11.4c20.5-8.8,19.1-17.8,1.6-26.7c-2.2-1.1-4.4-3-10.1-2.7
	c-5,0.3-2.7,2.2-2.6,3.4c0.1,6.6-8.5,12.4-26.5,17.5c-11.8,3.4-23.3,6.8-34.8,10.2c-6.4,1.9-11.8,4-14.2,6.4
	c-6.3,6.3-10.5,12.8-6.8,19.2c5.9,10.2,17.8,20.1,41.2,29.2c9,3.5,18.2,7,21.7,11c3,3.4,3.4,6.8-4.5,10c-5.9,2.4-16.3,2.5-23,0.3
	c-5.9-2-9.7-4.1-9.6-6.5s-1.1-4.9,1.3-7.4c0.6-0.6,0.6-1.4-2.2-1.6c-2-0.3-4.1,0.1-5.9,1c-5.1,2.5-12,4.9-15,7.7
	c-12.6,11.6-2.1,22.3,25,32.3c5.5,2,13.3,3.7,22.2,5c13.6-10.5,39.2-19.6,59.6-29.4c6.5-3.1,7.8-6.2-0.1-9.2
	c-13.1-5-9.2-10.3-5.4-15.6c0.3-0.3,0.8-0.8,2.5-0.8c2.2,0,2.7,0.5,2.7,0.9c0.2,1.8,0,3.5,1.8,5.3s5.5,3,12.7,3.4
	c12.3,0.7,18.6,2.5,20.7,5.3c0.8,1.2,1.8,2.3,2.9,3.2c1.4,1.2,3.6,2.2,10.1,2.2c6,0,9.5-0.7,11.3-1.9c5.5-3.6-1.8-6.6-9.5-9.5
	c-9.1-3.3-17.6-6.5-15.8-10.6c1.5-3.5,5.3-6.7,13.1-9.7c8.9-3.4,21.3-6.3,27.6-10.1c4.3-2.6,6.8-5.3,1.9-8c-0.7-0.4-1.4-0.8,0.7-1.1
	c1.4-0.2,2.9,0,4.2,0.5c3.5,1.3,7.4,2.5,8.4,4c3.2,4.8,3.2,9.5-7.2,14c-2.7,1.2-4.2,2.4-3.9,3.8c0.2,0.8,1.1,1.5,4.3,1.9
	c3,0.3,6,0.1,8.9-0.6c5.8-1,8.3-2.6,9.6-4.1c4.5-5.1,5.8-10.3,2.7-15.5c-2-3.4,1-6.7,6.4-9.8c3.1-1.8,7.4-3.5,11.1-5.2
	c1.5-0.7,3.1-0.9,4.7-0.7c1.5,0.1,2.3,0.4,2,0.8c-6.2,7.8,6.8,14.8,19.2,21.8c7.3,4.2,13.9,8.5,11.9,13.2c-1.8,4.3-7,8.3-14.2,12.2
	c-4.7,2.6-9.2,5.2-12.1,7.9c-2.3,2.2,3.4,5.3,11.8,6.3c11.7,1.4,19.3,0.3,19.8-2.7s-3.2-6.1-1.9-9.2c0.2-0.5,0-1,0.3-1.4
	s1.4-0.8,3.6-0.8c1.7,0,3,0.3,3,0.7c0,1.3,1.8,2.3,4.3,3.2L1970.4,692.5z M1914.7,651.2c-3.4,1-5.2,2.3-5.7,3.6
	c-0.2,0.4-0.2,0.9-2.6,0.9s-2.6-0.5-3.2-0.8c-2.9-1.9-6.4-3.7-5.1-5.6c-0.8-3,4.9-5.5,8.8-8.1c2.4-1.3,5.3-1.3,7.7-0.1
	C1921.5,644.4,1925.6,647.8,1914.7,651.2z"/>
<path class="st5" d="M1605,718.3c-6.5-3.1-7.8-6.2,0.1-9.2c13.1-5,9.2-10.3,5.4-15.6c-0.3-0.3-0.8-0.8-2.5-0.8
	c-2.2,0-2.7,0.5-2.7,0.9c-0.2,1.8,0,3.5-1.8,5.3s-5.5,3-12.7,3.4c-12.3,0.7-18.6,2.5-20.7,5.3c-0.8,1.2-1.8,2.3-2.9,3.2
	c-1.4,1.2-3.6,2.2-10.1,2.2c-6,0-9.4-0.7-11.3-1.9c-5.5-3.6,1.8-6.6,9.5-9.5c9.1-3.3,17.6-6.5,15.8-10.6c-1.5-3.5-5.3-6.7-13.1-9.7
	c-8.9-3.4-21.3-6.3-27.6-10.1c-4.3-2.6-6.8-5.3-1.9-8c0.7-0.4,1.4-0.8-0.7-1.1c-1.4-0.2-2.9,0-4.2,0.5c-3.5,1.3-7.4,2.5-8.4,4
	c-3.2,4.8-3.2,9.5,7.2,14c2.7,1.2,4.2,2.4,3.9,3.8c-0.2,0.8-1.1,1.5-4.3,1.9c-3,0.3-6,0.1-8.9-0.6c-5.8-1-8.3-2.6-9.6-4.1
	c-4.5-5.1-5.8-10.3-2.7-15.5c2-3.4-1-6.7-6.4-9.8c-3.1-1.8-7.4-3.5-11.1-5.2c-1.5-0.7-3.1-0.9-4.7-0.7c-1.5,0.1-2.3,0.4-2,0.8
	c6.2,7.8-6.8,14.8-19.2,21.8c-7.3,4.2-13.9,8.5-11.9,13.2c1.8,4.3,7,8.3,14.2,12.2c4.7,2.6,9.2,5.2,12.1,7.9
	c2.3,2.2-3.4,5.3-11.8,6.3c-11.7,1.4-19.3,0.3-19.8-2.7s3.2-6.1,1.9-9.2c-0.2-0.5,0-1-0.3-1.4s-1.4-0.8-3.6-0.8c-1.7,0-3,0.3-3,0.7
	c-0.1,3.1-10.4,4.8-17.4,7c-8.9,2.7-9.8,5.7-7.5,8.8c3.1,4.2,7.5,8.3,11.3,12.4c0.2,0.2,0.5,0.4,0.5,0.6c0.3,1,0.4,2.5-3.7,2.7
	c-4.3,0.2-4-1.3-5.1-2.1c-3.9-2.8-9.5-5.4-17.7-7.6c-20.3-5.3-19.6-11.1-9.4-17.3c5.3-3.2,13.8-6.1,15.4-9.6c2.7-5.5,1-11-11.7-15.9
	c-1.8-0.9-3.8-1.2-5.7-1c-2.8,0.2-1.7,1-1.5,1.5c2.9,7.1-10.2,12.8-28.4,18.2c-13,3.9-25.1,8-27.4,13.2c-3.6,8-2.1,15.9,7.8,23.8
	c6.7,5.3,15.8,10.3,27,15.2c1.9,0.8,4.5,1.6,4.7,2.6c-20.9-2.5-41.5-6.9-61.7-13c-3.9-1-7.6-2.9-10.8-5.4c-7.2-6-11.8-12-11.6-18.3
	c0.3-12.6,15-24.4,38.1-35.7c10.6-5.2,21.3-10.3,30.8-15.5c7-3.9,5.9-7.5-5.4-10.9c-3.8-1.1-7.4-2.6-10.8-4.5
	c-8.7-4.9-5.5-10-4.3-15.1c0.1-0.4,1-0.9,3.2-0.8c2.7,0.1,3,0.6,3.2,1.1c0.9,2,1.7,4.1,4.5,6.1c3.6,2.5,9.7,4.5,21.7,5
	c14.1,0.5,22.1,2.5,26.7,5.4c2.6,1.6,4.3,3.3,6.9,4.9c2.4,1.5,7.1,2.4,14.5,2.2s11.2-1.2,13.2-2.7c2.3-1.7,1.6-3.4-1.6-5
	c-7.5-3.9-15.5-6.8-23.7-8.7c-9.5-2.2-14.8-5-16.7-8c-3.7-6,2.2-11.6,15.4-16.8c6.3-2.5,13.2-4.9,19.6-7.4
	c13.1-5.1,19.4-10.3,8.4-16c-0.9-0.5-1.5-1,0.7-1.3c1.8-0.2,3.5,0,5.2,0.5c5.7,1.5,11.9,3.1,13.5,5c4.5,5.6,10.8,11.2,0.8,16.8
	c-2.5,1.5-4.8,3.2-7,5.1c-1.5,1.2-1.2,2.5,1.3,3.6c3.2,1.5,8,1.8,14,0.9c4.7-0.7,7.8-1.7,9.7-2.9c10.1-6.5,10.5-13.3,5.2-19.9
	c-7.1-8.9-3.4-17.3,17-25.2c1.4-0.6,2.1-1.5,5.8-1.3s4,1.2,3.1,1.9c-1.1,0.9-1.6,2.3-1.4,3.7c0.4,6.7,8,12.9,21.3,18.7
	c8.6,3.8,15.6,7.7,22.9,11.6c15.7,8.4,13.4,16.7,0.7,25.1c-5.1,3.4-10.2,6.7-15.1,10.1c-2.4,1.6-3.8,3.3-2.8,5.1
	c1.8,3.2,13.3,5.8,26.6,6c8.8,0.1,13.7-0.7,15-2.7c1.1-1.6,1.8-3.3,0-4.9c-3.3-3-3.4-6-3.4-9c0-0.7-1.2-1.6,2.6-1.8
	c4.3-0.2,5.4,0.7,5.8,1.5c1,1.9,5.4,3.3,10.9,4.6s10.7,2.6,15.7,4c8.6,2.4,12,5.1,10.5,8.2c-2.2,4.3-5.3,8-8.9,11.1
	c-2.9,2.6-5.2,5.2-3.1,7.9c0.5,0.7,0.6,1.6,3.9,1.7c3.9,0.1,3.6-0.9,4.3-1.5c5.2-4.4,14.8-8.2,27.5-11.7
	c14.2-3.8,17.8-8.3,14.5-13.1c-2.8-4.2-11.4-7.8-19.8-11.4c-20.5-8.8-19.1-17.8-1.6-26.7c2.2-1.1,4.4-3,10.1-2.7
	c5,0.3,2.7,2.2,2.6,3.4c-0.1,6.6,8.5,12.4,26.5,17.5c11.8,3.4,23.3,6.8,34.8,10.2c6.4,1.9,11.8,4,14.2,6.4
	c6.3,6.3,10.5,12.8,6.8,19.2c-5.9,10.2-17.8,20.1-41.2,29.2c-9,3.5-18.2,7-21.7,11c-3,3.4-3.4,6.8,4.5,10c5.9,2.4,16.3,2.5,23,0.3
	c5.9-2,9.7-4.1,9.6-6.5s1.1-4.9-1.3-7.4c-0.6-0.6-0.6-1.4,2.2-1.6c2-0.3,4.1,0.1,5.9,1c5.1,2.5,12,4.9,15,7.7
	c12.6,11.6,2.1,22.3-25,32.3c-5.5,2-13.3,3.7-22.2,5C1651,737.2,1625.4,728,1605,718.3z M1413,679.1c7.4,1.6,10,3.5,6.7,5.7
	c-0.7,0.5-2.7,1.1,0.8,1.4c1.6,0.3,3.3-0.1,4.7-1c10.7-4.3,13.5-8.7,1.6-13.2c-5.5-2.1-8.8-4.3-5.2-6.8c0.6-0.4,1.3-1-1.1-1.3
	c-1.5-0.3-3,0-4.3,0.8c-6.6,2.8-13.1,5.7-12.2,9.1C1403,675.8,1406.5,677.6,1413,679.1z M1494.1,631.3c-2.4-1.3-5.3-1.3-7.7-0.1
	c-7,3.3-11.1,6.7-0.2,10.1c3.4,1,5.2,2.3,5.7,3.6c0.2,0.4,0.2,0.9,2.6,0.9s2.6-0.5,3.2-0.8c2.9-1.9,6.4-3.7,5.1-5.6
	C1503.7,636.3,1498,633.9,1494.1,631.3L1494.1,631.3z"/>
<path class="st5" d="M1373.2,741.8c-6.5-3.1-7.8-6.2,0.1-9.2c13.1-5,9.2-10.3,5.4-15.6c-0.3-0.3-0.8-0.8-2.5-0.8
	c-2.2,0-2.7,0.5-2.7,0.9c-0.2,1.8,0,3.5-1.8,5.3s-5.5,3-12.7,3.4c-12.3,0.7-18.6,2.5-20.7,5.3c-0.8,1.2-1.8,2.3-2.9,3.2
	c-1.4,1.2-3.6,2.2-10.1,2.2c-6,0-9.4-0.7-11.3-1.9c-5.5-3.6,1.8-6.6,9.5-9.5c9.1-3.3,17.6-6.5,15.8-10.6c-1.5-3.5-5.3-6.7-13.1-9.7
	c-8.9-3.4-21.3-6.3-27.6-10.1c-4.3-2.6-6.8-5.3-1.9-8c0.7-0.4,1.4-0.8-0.7-1.1c-1.4-0.2-2.9,0-4.2,0.5c-3.5,1.3-7.4,2.5-8.4,4
	c-3.2,4.8-3.2,9.5,7.2,14c2.7,1.2,4.2,2.4,3.9,3.8c-0.2,0.8-1.1,1.5-4.3,1.9c-3,0.3-6,0.1-8.9-0.6c-5.8-1-8.3-2.6-9.6-4.1
	c-4.5-5.1-5.8-10.3-2.7-15.5c2-3.4-1-6.7-6.4-9.8c-3.1-1.8-7.4-3.5-11.1-5.2c-1.5-0.7-3.1-0.9-4.7-0.7c-1.5,0.1-2.3,0.4-2,0.8
	c6.2,7.8-6.8,14.8-19.2,21.8c-7.3,4.2-13.9,8.5-11.9,13.2c1.8,4.3,7,8.3,14.2,12.2c4.7,2.6,9.2,5.2,12.1,7.9
	c2.3,2.2-3.4,5.3-11.8,6.3c-11.7,1.4-19.3,0.3-19.8-2.7s3.2-6.1,1.9-9.2c-0.2-0.5,0-1-0.3-1.4s-1.4-0.8-3.6-0.8c-1.7,0-3,0.3-3,0.7
	c-0.1,3.1-10.4,4.8-17.4,7c-8.9,2.7-9.8,5.7-7.5,8.8c3.1,4.2,7.5,8.3,11.3,12.4c0.2,0.2,0.5,0.4,0.5,0.6c0.3,1,0.4,2.5-3.7,2.7
	c-4.3,0.2-4-1.3-5.1-2.1c-3.9-2.8-9.5-5.4-17.7-7.6c-20.3-5.3-19.6-11.1-9.4-17.3c5.3-3.2,13.8-6.1,15.4-9.6c2.7-5.5,1-11-11.7-15.9
	c-1.8-0.9-3.8-1.2-5.7-1c-2.8,0.2-1.7,1-1.5,1.5c2.9,7.1-10.2,12.8-28.4,18.2c-13,3.9-25.1,8-27.4,13.2c-3.6,8-2.1,15.9,7.8,23.8
	c6.7,5.3,15.8,10.3,27,15.2c1.9,0.8,4.5,1.6,4.7,2.6c-20.9-2.5-41.5-6.9-61.7-13c-3.9-1-7.6-2.9-10.8-5.4c-7.2-6-11.8-12-11.6-18.3
	c0.3-12.6,15-24.4,38.1-35.7c10.6-5.2,21.3-10.3,30.8-15.5c7-3.9,5.9-7.5-5.4-10.9c-3.8-1.1-7.4-2.6-10.8-4.5
	c-8.7-4.9-5.5-10-4.3-15.1c0.1-0.4,1-0.9,3.2-0.8c2.7,0.1,3,0.6,3.2,1.1c0.9,2,1.7,4.1,4.5,6.1c3.6,2.5,9.7,4.5,21.7,5
	c14.1,0.5,22.1,2.5,26.7,5.4c2.6,1.6,4.3,3.3,6.9,4.9c2.4,1.5,7.1,2.4,14.5,2.2s11.2-1.2,13.2-2.7c2.3-1.7,1.6-3.4-1.6-5
	c-7.5-3.9-15.5-6.8-23.7-8.7c-9.5-2.2-14.8-5-16.7-8c-3.7-6,2.2-11.6,15.4-16.8c6.3-2.5,13.2-4.9,19.6-7.4
	c13.1-5.1,19.4-10.3,8.4-16c-0.9-0.5-1.5-1,0.7-1.3c1.8-0.2,3.5,0,5.2,0.5c5.7,1.5,11.9,3.1,13.5,5c4.5,5.6,10.8,11.2,0.8,16.8
	c-2.5,1.5-4.8,3.2-7,5.1c-1.5,1.2-1.2,2.5,1.3,3.6c3.2,1.5,8,1.8,14,0.9c4.7-0.7,7.8-1.7,9.7-2.9c10.1-6.5,10.5-13.3,5.2-19.9
	c-7.1-8.9-3.4-17.3,17-25.2c1.4-0.6,2.1-1.5,5.8-1.3s4,1.2,3.1,1.9c-1.1,0.9-1.6,2.3-1.4,3.7c0.4,6.7,8,12.9,21.3,18.7
	c8.6,3.8,15.6,7.7,22.9,11.6c15.7,8.4,13.4,16.7,0.7,25.1c-5.1,3.4-10.2,6.7-15.1,10.1c-2.4,1.6-3.8,3.3-2.8,5.1
	c1.8,3.2,13.3,5.8,26.6,6c8.8,0.1,13.7-0.7,15-2.7c1.1-1.6,1.8-3.3,0-4.9c-3.3-3-3.4-6-3.4-9c0-0.7-1.2-1.6,2.6-1.8
	c4.3-0.2,5.4,0.7,5.8,1.5c1,1.9,5.4,3.3,10.9,4.6s10.7,2.6,15.7,4c8.6,2.4,12,5.1,10.5,8.2c-2.2,4.3-5.3,8-8.9,11.1
	c-2.9,2.6-5.2,5.2-3.1,7.9c0.5,0.7,0.6,1.6,3.9,1.7c3.9,0.1,3.6-0.9,4.3-1.5c5.2-4.4,14.8-8.2,27.5-11.7
	c14.2-3.8,17.8-8.3,14.5-13.1c-2.8-4.2-11.4-7.8-19.8-11.4c-20.5-8.8-19.1-17.8-1.6-26.7c2.2-1.1,4.4-3,10.1-2.7
	c5,0.3,2.7,2.2,2.6,3.4c-0.1,6.6,8.5,12.4,26.5,17.5c11.8,3.4,23.3,6.8,34.8,10.2c6.4,1.9,11.8,4,14.2,6.4
	c6.3,6.3,10.5,12.8,6.8,19.2c-5.9,10.2-17.8,20.1-41.2,29.2c-9,3.5-18.2,7-21.7,11c-3,3.4-3.4,6.8,4.5,10c5.9,2.4,16.3,2.5,23,0.3
	c5.9-2,9.7-4.1,9.6-6.5s1.1-4.9-1.3-7.4c-0.6-0.6-0.6-1.4,2.2-1.6c2-0.3,4.1,0.1,5.9,1c5.1,2.5,12,4.9,15,7.7
	c12.6,11.6,2.1,22.3-25,32.3c-5.5,2-13.3,3.7-22.2,5C1419.3,760.8,1393.6,751.6,1373.2,741.8z M1181.2,702.6c7.4,1.6,10,3.5,6.7,5.7
	c-0.7,0.5-2.7,1.1,0.8,1.4c1.6,0.3,3.3-0.1,4.7-1c10.7-4.3,13.5-8.7,1.6-13.2c-5.5-2.1-8.8-4.3-5.2-6.8c0.6-0.4,1.3-1-1.1-1.3
	c-1.5-0.3-3,0-4.3,0.8c-6.6,2.8-13.1,5.7-12.2,9.1C1171.2,699.4,1174.7,701.2,1181.2,702.6L1181.2,702.6z M1262.3,654.8
	c-2.4-1.3-5.3-1.3-7.7-0.1c-7,3.3-11.1,6.7-0.2,10.1c3.4,1,5.2,2.3,5.7,3.6c0.2,0.4,0.2,0.9,2.6,0.9s2.6-0.5,3.2-0.8
	c2.9-1.9,6.4-3.7,5.1-5.6C1271.9,659.9,1266.2,657.4,1262.3,654.8L1262.3,654.8z"/>
<path class="st5" d="M1218.3,546.7c-0.4,4.9-6.5,9.2-15.7,13.1c-7,3-15.6,5.8-13.6,9.9c0.2,0.5-0.7,1.1-2.7,1.2
	c-1.4,0.2-2.9-0.1-4.2-0.8c-0.7-0.5-1.7-1-1.9-1.5c-1.9-6.3-11-12.1-14.7-18.2c-2.7-4.4-0.3-8.7,7.3-12.6
	c7.2-3.8,12.7-7.7,15.3-11.9c0.7-1.2,1.9-2.1,3.3-2.4c1.5-0.5,3.1-0.7,4.7-0.5c1,0.1,1.7,0.7,1.7,1.1c0.2,5.2,9.1,9.7,14.6,14.4
	C1215.6,541.3,1218.5,543.9,1218.3,546.7z"/>
<path class="st5" d="M810.5,666.5c0.3-3.7,2.2-8.4,8.5-12.8c1.4-1,2.9-1.9,4.5-2.5c2.6-1.3,5.5-1.8,8.3-1.6c3.8,0.4,1.6,1.7,1.2,2.6
	c-3,6.2,0.5,12.1,11.3,17.4c11,5.4,15.6,11.3,19.7,17.2c3.4,4.9-3.3,8.9-13.8,12.5c-1.6,0.7-3.4,1-5.2,0.8c-2.6-0.2-4.2-0.8-4.1-1.5
	c1-6.6-11-11.8-20.8-17.2C812.5,677,810.4,672.3,810.5,666.5z"/>
<path class="st5" d="M994,553.7c0.4-1.6-1.2-3.2-2.2-4.8c-0.4-0.6-0.5-1.3,2-1.5c1.7-0.3,3.4,0,4.9,0.8c11,5.7,19.7,11.5,19.4,18.2
	c-0.2,3.5-4.8,6.5-13.5,8.8c-11,3-13.8,6.4-8.8,10.4c1.1,0.9,2.9,2-1.2,2.5s-4.4-0.9-5.8-1.5c-1.9-1-3.3-2-5.2-3
	c-13.8-7-12.2-13.9,1.4-20.8C990.5,559.9,994.6,557,994,553.7z"/>
<path class="st5" d="M1221.5,586.4c1.3-4.3,7.9-9.3,15.4-14.1c1.2-0.7,2.6-1.2,4-1.3c2.9-0.1,3.2,0.9,4.2,1.5
	c11.4,6.6,14.4,13-3.1,19.3c-3.9,1.4-4.4,3.2-4.4,5c0,0.8-0.5,1.7-3.6,1.9c-3.4,0.2-4.1-0.8-4.9-1.5
	C1226,593.8,1221.4,590.8,1221.5,586.4z"/>
<polygon class="st5" points="731.5,665 703.5,674.9 717.5,687.2 771.5,669.7 "/>
<polygon class="st5" points="278,635.9 244,645.5 261,654 293.9,645.5 "/>
<path class="st5" d="M1304.9,711.5l-67-26.6l-32.9-22l-47.5-15.5l-40.4-11.5l-18-9.6l18-14.8l-18-10.5l-25-3.2l-24,38.1l-54.9,18.6
	c0,0-32,18-48,21.5s-81.9,30.2-81.9,30.2l195.8,32.6h193L1304.9,711.5z"/>
</svg>
