<svg width="385" height="822" viewBox="0 0 385 822" fill="none" xmlns="http://www.w3.org/2000/svg">
<rect x="2.5" y="2.5" width="380" height="817" rx="42.5" fill="#9D2519"/>
<path d="M177.283 435.971L175.507 431.936L173.478 427.9L171.196 424.116L166.377 416.549L163.841 412.766L161.304 408.982L158.768 405.451L156.232 401.919L153.949 398.388L151.667 394.857L149.384 391.326L147.355 387.794L145.326 384.263L143.804 380.732L142.536 377.2L141.268 377.453L140 377.957L138.986 378.462L137.717 378.714L136.703 379.218L135.688 379.723L134.674 380.227L132.391 380.984L131.377 381.488L130.362 381.993L129.348 382.497L128.333 383.002L127.319 383.506L126.304 384.011L125.29 384.515L126.051 393.596L127.319 402.424L129.094 410.748L131.377 418.567L133.913 425.882L136.957 432.945L140.254 439.755L143.804 446.061L147.609 451.862L151.667 457.411L155.978 462.456L160.29 467.249L164.601 471.537L168.913 475.572L173.225 479.356L177.536 482.635L178.804 478.852L179.819 475.32L180.833 472.041L181.341 468.762L181.848 465.735L182.101 462.708L182.355 459.934V456.655L182.101 453.88L181.848 451.106L181.341 448.583L180.072 443.538L179.312 441.016L177.283 435.971ZM226.232 349.707L230.29 350.211L234.348 350.968L238.406 351.724L242.464 352.733L246.268 353.742L250.072 354.751L253.877 355.76L257.681 357.021L261.232 358.283L264.783 359.544L268.333 360.805L271.884 362.066L275.181 363.58L281.522 366.859L284.565 368.624L284.312 375.183L284.058 381.488L283.551 387.794L282.79 393.848L281.775 399.902L280.507 405.451L279.239 411L277.717 416.297L275.942 421.594L274.167 426.639L272.138 431.683L270.109 436.476L267.826 441.016L265.543 445.556L263.261 449.844L260.725 454.132L281.775 478.095L285.326 472.546L288.623 466.744L291.92 460.691L294.964 454.637L297.754 448.331L300.543 441.773L303.08 434.962L305.362 428.152L307.391 420.837L309.42 413.522L310.942 405.955L312.464 398.136L313.478 390.064L314.239 381.741L314.746 373.165L315 364.589L310.181 361.309L305.109 358.03L299.783 355.004L294.203 352.229L288.37 349.454L282.283 347.184L276.196 344.914L269.855 342.896L263.261 341.131L256.667 339.365L249.819 337.852L242.971 336.59L235.87 335.329L228.768 334.32L221.667 333.564L214.565 333.059L215.072 334.068L215.58 335.077L216.341 336.086L216.848 337.095L218.37 339.365L218.877 340.374L219.638 341.383L221.159 343.653L221.92 344.662L223.442 346.932L224.203 347.941L224.964 348.95L226.232 349.707ZM100.688 368.12V374.678L100.942 380.984L101.449 387.29L102.21 393.343L103.225 399.397L104.239 404.946L105.507 410.496L107.029 415.792L108.804 421.089L110.58 426.134L112.609 431.179L114.638 435.971L116.92 440.512L119.203 445.052L121.486 449.34L124.022 453.628L102.717 477.59L99.1667 472.041L95.8696 466.24L92.5725 460.186L89.529 454.132L86.7391 447.826L83.9493 441.268L81.413 434.458L79.1304 427.648L77.1015 420.333L75.0725 413.018L73.5507 405.451L72.2826 397.632L71.2681 389.56L70.5072 381.236L70 372.66V364.084L73.5507 361.562L77.3551 359.039L81.1594 356.769L85.2174 354.499L89.529 352.481L93.8406 350.463L98.4058 348.698L102.971 346.932L107.79 345.166L112.609 343.653L117.428 342.14L122.5 340.626L127.572 339.365L132.899 338.104L138.225 337.095L143.551 336.086L142.79 338.356L142.536 339.617L142.283 340.626L142.029 341.635L141.775 342.644L141.522 343.653L141.268 344.662L141.014 345.671L140.507 347.941L140.254 348.95V349.959L140 351.977V352.986L137.21 353.49L134.42 354.247L131.884 355.004L129.348 355.76L126.812 356.517L124.275 357.274L121.739 358.283L119.457 359.292L117.174 360.301L114.891 361.309L112.609 362.318L110.326 363.327L108.043 364.336L103.732 366.606L100.688 368.12ZM192.754 552L189.71 550.991L186.413 549.73L183.116 548.216L179.565 546.451L175.761 544.685L171.957 542.667L168.152 540.397L164.094 537.875L159.783 535.1L155.471 532.073L151.159 528.794L146.848 525.515L142.536 521.984L138.225 518.2L133.913 514.165L129.601 510.129L150.652 486.419L153.442 489.193L159.275 494.238L162.065 496.508L164.855 498.778L167.645 500.796L170.435 502.814L173.225 504.832L176.014 506.597L178.551 508.363L181.087 509.877L183.623 511.39L186.159 512.651L188.442 513.912L190.725 515.174L193.007 516.182L195.036 515.174L197.319 513.912L199.601 512.651L201.884 511.39L204.42 509.877L206.957 508.363L209.746 506.597L212.536 504.832L215.326 502.814L218.116 500.796L220.906 498.778L223.696 496.508L226.486 494.238L232.319 489.193L235.362 486.419L256.413 510.129L252.101 514.165L247.79 518.2L243.478 521.984L239.167 525.515L234.855 528.794L230.543 532.073L226.232 535.1L221.667 537.37L217.609 539.893L213.551 542.163L209.746 544.181L205.942 545.946L202.391 547.712L199.094 549.225L195.797 550.487L192.754 552ZM224.71 435.971L227.754 431.683L230.543 427.395L232.826 423.107L234.855 419.072L236.377 415.036L237.899 411L238.913 406.964L239.674 402.928L240.181 399.145L240.435 395.361L240.688 391.83V388.551L240.435 385.272L240.181 382.245L239.674 379.218L239.167 376.444L240.688 376.948L242.21 377.453L245 378.209L247.79 379.218L249.312 379.723L250.58 380.227L252.101 380.732L253.37 381.236L254.638 381.741L255.906 382.245L257.174 382.75L258.442 383.254L259.71 383.759L260.978 384.263L259.964 395.614L258.188 406.208L255.652 416.297L252.355 425.63L248.551 434.458L244.239 442.53L239.42 450.097L234.348 456.907L229.022 463.213L223.696 469.014L218.116 474.311L212.79 478.852L207.464 482.887L202.391 486.419L197.572 489.445L193.261 491.968L192.754 491.716L192.246 491.463L191.739 490.959L191.232 490.707L190.725 490.454L190.217 489.95L189.71 489.698L188.949 489.193L188.442 488.689L187.681 488.184L187.174 487.68L186.413 487.175L185.906 486.671L185.145 486.166L184.384 485.662L183.877 485.157L190.217 476.329L195.036 467.501L198.333 458.673L200.362 450.349L201.377 442.277L201.123 434.458L200.109 426.891L198.333 419.828L196.051 413.018L193.514 406.964L190.725 401.415L187.935 396.37L185.145 392.082L182.609 388.299L180.326 385.272L178.804 383.254L177.536 381.488L176.268 379.723L175 377.705L173.732 375.687L172.21 373.669L170.942 371.399L169.674 369.129L168.406 366.859L167.138 364.589L164.855 359.796L163.841 357.526L162.826 355.256L160.797 353.238L160.036 350.716L159.529 348.445L158.768 344.41L158.261 340.374L158.007 336.086V331.798L158.261 327.258L158.768 322.717L159.783 317.925L161.304 312.88L163.333 307.835L165.616 302.791L168.406 297.494L171.703 292.197L175.507 286.648L180.072 281.098L185.145 275.549L190.978 270L193.261 271.009L190.471 276.054L188.188 281.098L186.159 285.891L184.638 290.431L183.37 294.719L182.355 298.755L181.594 302.538L181.341 306.322L181.087 309.853V313.385L181.341 316.916L181.848 320.447L182.609 323.726L183.623 327.005L184.638 330.284L185.906 333.564L187.428 337.347L189.457 341.383L191.739 345.419L194.275 349.454L197.065 353.742L199.855 358.03L202.899 362.318L205.942 366.859L208.986 371.399L211.775 375.939L214.565 380.479L217.101 385.02L219.384 389.56L221.413 394.1L222.935 398.64L224.203 403.181L224.457 404.946L224.71 406.712L225.217 410.496V412.261L225.471 414.027V420.081V422.098L225.217 424.369L224.964 426.386L224.71 428.657L224.203 430.927L223.188 435.467L224.71 435.971Z" fill="#C4AE67"/>
<rect x="2.5" y="2.5" width="380" height="817" rx="42.5" stroke="black" stroke-width="5"/>
</svg>
